<?xml version="1.0" encoding="utf-8"?>
<!-- Generator: Adobe Illustrator 16.0.0, SVG Export Plug-In . SVG Version: 6.00 Build 0)  -->
<!DOCTYPE svg PUBLIC "-//W3C//DTD SVG 1.1//EN" "http://www.w3.org/Graphics/SVG/1.1/DTD/svg11.dtd">
<svg version="1.1" id="Layer_1" xmlns="http://www.w3.org/2000/svg" xmlns:xlink="http://www.w3.org/1999/xlink" x="0px" y="0px"
	 width="62.195px" height="33.788px" viewBox="-8.019 -1.895 62.195 33.788" enable-background="new -8.019 -1.895 62.195 33.788"
	 xml:space="preserve">
<g>
	<path fill="#FFFFFF" d="M3.228,28.325c-0.162-0.003-0.369-0.019-0.62-0.041c-0.251-0.024-0.487-0.013-0.703,0.035
		c-0.007-0.094,0.027-0.166,0.101-0.221c0.074-0.059,0.154-0.097,0.246-0.116c0.101-0.022,0.171-0.018,0.211,0.012
		c0.042,0.031,0.125,0.06,0.25,0.087c-0.033-0.034-0.051-0.079-0.049-0.13c0.002-0.054,0.031-0.094,0.094-0.12
		c-0.109-0.005-0.209-0.019-0.299-0.044c-0.094-0.027-0.21-0.022-0.35,0.008c-0.089,0.019-0.146,0.062-0.174,0.127
		c-0.025,0.064-0.049,0.134-0.072,0.206c-0.023,0.075-0.049,0.143-0.075,0.209c-0.023,0.065-0.082,0.107-0.172,0.127l-0.038,0.01
		c-0.025,0.004-0.043-0.018-0.055-0.068c-0.018-0.024-0.029-0.048-0.035-0.074l-0.059,0.012c-0.063,0.015-0.105,0.053-0.125,0.111
		c-0.021,0.058-0.069,0.095-0.146,0.111c-0.076,0.018-0.139,0.006-0.188-0.038c-0.05-0.042-0.094-0.093-0.135-0.149
		c-0.039-0.059-0.088-0.108-0.143-0.151c-0.055-0.039-0.123-0.051-0.197-0.032l0.019,0.354c-0.025,0.007-0.05,0.018-0.072,0.038
		c-0.045,0.035-0.08,0.056-0.105,0.062l-0.019,0.004L0.278,28.66c-0.015-0.009-0.047-0.034-0.097-0.077
		c-0.05-0.041-0.107-0.086-0.172-0.133c-0.063-0.047-0.12-0.084-0.174-0.111c-0.052-0.027-0.093-0.038-0.116-0.034l-0.021,0.007
		c-0.02,0.03-0.059,0.078-0.116,0.145c-0.059,0.065-0.098,0.115-0.118,0.146c-0.097-0.138-0.22-0.265-0.365-0.378
		c-0.144-0.111-0.248-0.25-0.312-0.412c-0.513-1.46-0.965-2.922-1.355-4.384c-0.393-1.462-0.789-2.942-1.189-4.441
		c-0.02-0.037-0.035-0.078-0.049-0.129c-0.023-0.049-0.041-0.098-0.052-0.149c-0.012-0.05-0.044-0.215-0.101-0.488
		c-0.055-0.273-0.116-0.57-0.188-0.889c-0.07-0.317-0.138-0.615-0.208-0.894c-0.068-0.28-0.113-0.457-0.129-0.533l-0.013-0.058
		l-0.577-1.875l-0.01-0.039c-0.019-0.263,0.016-0.492,0.097-0.691c0.083-0.198,0.195-0.381,0.339-0.547
		c0.144-0.165,0.313-0.319,0.509-0.464c0.194-0.144,0.397-0.284,0.605-0.425c0.055,0.002,0.155-0.007,0.307-0.027
		c0.148-0.02,0.298-0.048,0.451-0.082c0.154-0.034,0.297-0.069,0.438-0.104c0.136-0.039,0.237-0.071,0.299-0.097
		c0.342-0.089,0.676-0.25,1.007-0.474c0.328-0.228,0.652-0.409,0.969-0.547c0.148-0.059,0.268-0.105,0.372-0.133
		c0.099-0.029,0.204-0.055,0.312-0.081c0.107-0.023,0.224-0.046,0.344-0.066c0.123-0.021,0.275-0.051,0.452-0.091
		c1.264-0.267,2.185-0.205,2.766,0.187c0.58,0.392,0.909,1.146,0.982,2.265c0.02,0.262,0.018,0.584-0.003,0.972
		c-0.02,0.384-0.056,0.781-0.104,1.194c-0.05,0.41-0.109,0.813-0.183,1.201c-0.073,0.392-0.149,0.714-0.225,0.972
		c0.003,0.014-0.002,0.031-0.016,0.062c-0.016,0.03-0.028,0.067-0.046,0.11c-0.015,0.059-0.03,0.11-0.049,0.151l0.014,0.056
		l-0.014,0.027c0.082,0.008,0.211,0.018,0.388,0.031c0.178,0.017,0.357,0.029,0.54,0.041s0.347,0.025,0.49,0.041
		c0.143,0.015,0.228,0.021,0.254,0.014c0.039,0.006,0.116,0.02,0.227,0.038c0.112,0.024,0.225,0.044,0.337,0.066
		c0.112,0.025,0.217,0.044,0.315,0.071c0.1,0.024,0.162,0.039,0.191,0.047c0.082,0.021,0.14,0.065,0.168,0.133
		c0.029,0.065,0.053,0.132,0.074,0.193c0.021,0.062,0.055,0.114,0.103,0.149c0.048,0.032,0.147,0.037,0.302,0.003l0.007-0.062
		C7.89,18.05,7.809,18.013,7.69,17.961c-0.121-0.053-0.186-0.111-0.202-0.177l0.021-0.003l0.057-0.014
		c0.199,0.062,0.414,0.164,0.639,0.298c0.221,0.139,0.416,0.276,0.582,0.414c-0.023,0.019,0.031,0.086,0.164,0.203
		c0.133,0.116,0.279,0.251,0.441,0.402c0.157,0.15,0.311,0.311,0.457,0.478c0.143,0.17,0.219,0.307,0.228,0.41l0.116-0.025
		c-0.005,0.094-0.038,0.157-0.1,0.181c0.192,0.081,0.35,0.202,0.477,0.377c0.125,0.171,0.221,0.368,0.289,0.584
		c0.067,0.219,0.117,0.442,0.148,0.669c0.03,0.228,0.055,0.438,0.071,0.636c0.037,0.646-0.05,1.261-0.263,1.839
		c-0.208,0.584-0.548,1.186-1.01,1.807l0.011,0.039c-0.082,0.177-0.182,0.329-0.304,0.448c-0.118,0.12-0.273,0.236-0.461,0.343
		L8.96,26.729c-0.013,0.004-0.052,0.034-0.11,0.086c-0.062,0.054-0.103,0.097-0.123,0.128c-0.086,0.1-0.194,0.203-0.33,0.313
		s-0.283,0.214-0.443,0.311c-0.158,0.095-0.32,0.178-0.482,0.256c-0.162,0.076-0.31,0.129-0.436,0.158
		c-0.104,0.009-0.205,0.003-0.293-0.015c-0.092-0.021-0.201-0.016-0.327,0.012l-0.384,0.084c-0.051,0.012-0.109,0.03-0.177,0.052
		c-0.069,0.022-0.135,0.046-0.194,0.069c-0.074,0.033-0.154,0.057-0.244,0.078l0.022,0.193c-0.037,0.009-0.124,0.017-0.254,0.027
		C5.053,28.489,4.967,28.5,4.93,28.508c-0.065,0.001-0.181,0.013-0.342,0.035c-0.163,0.022-0.274,0.043-0.339,0.058
		c-0.041-0.006-0.119-0.012-0.232-0.02c-0.116-0.008-0.23-0.025-0.344-0.054C3.56,28.5,3.459,28.468,3.37,28.432
		C3.285,28.4,3.235,28.364,3.228,28.325z M-0.074,13.22c-0.01,0.07-0.052,0.112-0.123,0.128c-0.07,0.016-0.142,0.035-0.215,0.058
		c-0.077,0.022-0.143,0.059-0.197,0.104c-0.058,0.046-0.081,0.121-0.07,0.227l0.194-0.025l1.606-1.059l-0.008-0.038l0.008-0.062
		c-0.027,0.006-0.057,0.003-0.095-0.008c-0.037-0.012-0.065-0.016-0.091-0.01l-0.021-0.097c-0.063,0.015-0.164,0.056-0.303,0.129
		c-0.139,0.07-0.27,0.15-0.396,0.238c-0.129,0.088-0.24,0.178-0.342,0.267c-0.101,0.089-0.146,0.152-0.138,0.188L-0.074,13.22z
		 M-0.646,14.428c0.016,0.25,0.065,0.554,0.152,0.908c0.084,0.354,0.177,0.722,0.275,1.102c0.097,0.378,0.188,0.748,0.275,1.109
		s0.137,0.662,0.151,0.897l0.074-0.018c0.078-0.43,0.151-0.827,0.217-1.19c0.062-0.318,0.125-0.628,0.193-0.924
		c0.069-0.292,0.131-0.5,0.184-0.619c0.162-0.359,0.288-0.734,0.378-1.137c0.09-0.4,0.13-0.78,0.117-1.137
		c-0.004-0.025-0.014-0.09-0.023-0.196c-0.011-0.104-0.013-0.177-0.008-0.217c-0.026-0.062-0.104-0.079-0.233-0.051
		c-0.101,0.023-0.237,0.082-0.41,0.174c-0.175,0.091-0.353,0.197-0.53,0.318c-0.18,0.12-0.346,0.245-0.498,0.37
		c-0.151,0.129-0.259,0.232-0.32,0.312c-0.008,0.028-0.008,0.079,0.004,0.151C-0.641,14.351-0.638,14.401-0.646,14.428z
		 M0.655,27.657c-0.063,0.014-0.094,0.047-0.088,0.099c0.006,0.055,0.039,0.07,0.102,0.057c0.04-0.008,0.057-0.036,0.051-0.09
		C0.714,27.671,0.693,27.647,0.655,27.657z M1.249,22.137l0.048,0.03c0.048-0.012,0.055,0.015,0.016,0.075l0.273-0.299
		c-0.017-0.012-0.047-0.02-0.096-0.03c-0.049-0.009-0.087-0.016-0.116-0.021l-0.057,0.011L1.279,21.91
		c0.004,0.014-0.008,0.04-0.03,0.088c-0.023,0.045-0.039,0.082-0.047,0.109L1.249,22.137z M1.351,22.774
		c0.009,0.038,0.041,0.135,0.094,0.281c0.053,0.147,0.11,0.309,0.178,0.481c0.064,0.172,0.127,0.342,0.192,0.508
		c0.063,0.164,0.103,0.282,0.116,0.343c0.005,0.028,0.019,0.088,0.041,0.184c0.022,0.095,0.043,0.199,0.066,0.303
		c0.025,0.11,0.049,0.212,0.067,0.309c0.022,0.093,0.034,0.148,0.037,0.162c0.039,0.111,0.093,0.229,0.162,0.354
		c0.065,0.126,0.128,0.252,0.192,0.378c0.061,0.126,0.111,0.253,0.152,0.377c0.043,0.124,0.057,0.246,0.043,0.369
		c0.062-0.08,0.104-0.143,0.127-0.188c0.025-0.045,0.034-0.101,0.034-0.166c0.008-0.03,0.004-0.061-0.011-0.099
		c-0.016-0.036-0.042-0.052-0.08-0.043l0.076-0.018c0.064-0.015,0.103,0.009,0.113,0.067c0.014,0.057,0.052,0.077,0.115,0.064
		c0.062-0.015,0.111-0.045,0.14-0.092c0.03-0.048,0.102-0.085,0.216-0.11c-0.004-0.022-0.004-0.072-0.002-0.146
		c0.004-0.077,0.029-0.132,0.072-0.169c0.031,0.021,0.061,0.035,0.09,0.043c0.027,0.006,0.038,0.022,0.03,0.05
		c0.112,0.083,0.228,0.13,0.344,0.146c0.117,0.013,0.226,0.063,0.321,0.148l0.346-0.077c0.343-0.076,0.662-0.204,0.955-0.382
		c0.295-0.179,0.553-0.388,0.771-0.622c0.222-0.237,0.407-0.5,0.559-0.787c0.149-0.284,0.259-0.576,0.327-0.872
		c0.007-0.027,0.002-0.117-0.011-0.27c-0.013-0.15-0.021-0.254-0.02-0.307c-0.054-0.906-0.339-1.629-0.851-2.162
		c-0.514-0.533-1.22-0.934-2.119-1.199l-0.095,0.021c-0.014,0.002-0.079,0.002-0.202-0.005c-0.121-0.008-0.196-0.008-0.223-0.003
		c-0.106,0.053-0.245,0.162-0.413,0.335c-0.17,0.172-0.334,0.363-0.493,0.579c-0.158,0.214-0.296,0.427-0.411,0.633
		c-0.115,0.205-0.178,0.362-0.192,0.474c-0.006-0.024-0.024-0.051-0.048-0.069c-0.024-0.021-0.049-0.029-0.076-0.026
		c-0.025,0.008-0.074,0.074-0.153,0.197c-0.08,0.125-0.16,0.259-0.243,0.405c-0.08,0.143-0.152,0.28-0.218,0.408
		C1.403,22.707,1.364,22.772,1.351,22.774z M1.481,28.033c-0.039,0.01-0.06,0.036-0.063,0.083c-0.002,0.051,0.016,0.066,0.056,0.06
		c0.037-0.009,0.057-0.034,0.061-0.084C1.535,28.046,1.517,28.025,1.481,28.033z M1.702,28.043
		c-0.051,0.011-0.072,0.044-0.069,0.096c0.006,0.056,0.034,0.074,0.085,0.062c0.052-0.014,0.074-0.042,0.069-0.096
		C1.78,28.054,1.754,28.031,1.702,28.043z M1.742,21.646c-0.052,0.013-0.078,0.047-0.08,0.099c-0.001,0.054,0.024,0.075,0.075,0.065
		c0.039-0.011,0.057-0.042,0.059-0.096C1.799,21.662,1.779,21.637,1.742,21.646z M2.06,21.276c-0.031-0.019-0.062-0.01-0.085,0.028
		c-0.024,0.039-0.018,0.055,0.021,0.047c0.007,0.025,0.028,0.024,0.06-0.003C2.09,21.319,2.09,21.296,2.06,21.276z M2.708,26.98
		c-0.027,0.005-0.039,0.022-0.039,0.047c-0.002,0.027,0.011,0.039,0.037,0.034c0.026-0.007,0.039-0.022,0.039-0.051
		C2.745,26.985,2.732,26.975,2.708,26.98z M2.947,27.788c-0.038,0.008-0.054,0.037-0.05,0.089c0.006,0.053,0.027,0.076,0.064,0.066
		c0.051-0.013,0.074-0.043,0.069-0.095C3.027,27.797,3,27.776,2.947,27.788z M3.125,26.786c-0.024,0.005-0.035,0.037-0.028,0.097
		c0.006,0.059,0.021,0.086,0.049,0.08c0.051-0.011,0.073-0.048,0.066-0.105C3.204,26.798,3.176,26.773,3.125,26.786z M6.526,17.5
		c0.023-0.005,0.036,0.019,0.035,0.072s-0.015,0.082-0.04,0.089c-0.063,0.012-0.095-0.007-0.093-0.058
		C6.43,17.547,6.461,17.514,6.526,17.5z M9.134,26.61l0.041,0.01l0.04-0.008c0.025-0.005,0.041-0.023,0.049-0.048
		c0.007-0.031,0.022-0.049,0.047-0.053L9.134,26.61z M9.643,26.198c0.007-0.03-0.003-0.04-0.026-0.034
		c-0.027,0.004-0.043,0.022-0.051,0.052c0.007,0.025,0.022,0.035,0.048,0.027C9.64,26.238,9.647,26.224,9.643,26.198z"/>
	<path fill="#FFFFFF" d="M15.593,26.034c-0.013,0.004-0.026,0.009-0.045,0.021c-0.018,0.011-0.039,0.02-0.064,0.023
		c-0.034,0.022-0.065,0.035-0.092,0.042l-0.023,0.064c-0.194,0.031-0.292-0.004-0.295-0.104c-0.002-0.098-0.005-0.19-0.009-0.267
		c-0.116,0.027-0.193,0.051-0.234,0.081c-0.038,0.028-0.073,0.059-0.099,0.09c-0.026,0.036-0.055,0.062-0.092,0.093
		c-0.032,0.027-0.105,0.054-0.221,0.079l-0.095,0.021c-0.013,0.003-0.028,0-0.042-0.011c-0.02-0.022-0.051-0.055-0.104-0.099
		c-0.048-0.041-0.086-0.062-0.11-0.055c-0.015,0.002-0.037,0.014-0.074,0.028c-0.038,0.016-0.061,0.026-0.071,0.043
		c-0.023-0.168-0.078-0.324-0.162-0.464c-0.085-0.142-0.132-0.29-0.143-0.448c-0.007-0.039-0.012-0.08-0.007-0.129
		c0.002-0.049,0.027-0.082,0.077-0.106c-0.058-0.013-0.104-0.063-0.145-0.149c-0.038-0.084-0.064-0.157-0.078-0.224l-0.976-3.927
		c-0.028-0.008-0.061-0.029-0.095-0.071c-0.036-0.037-0.049-0.069-0.044-0.099c-0.003-0.014-0.004-0.056-0.007-0.13
		c-0.004-0.07-0.009-0.15-0.014-0.237c-0.006-0.084-0.013-0.162-0.022-0.235c-0.008-0.07-0.021-0.103-0.031-0.101
		c-0.012-0.054-0.039-0.156-0.081-0.314c-0.041-0.154-0.088-0.324-0.134-0.511c-0.047-0.184-0.095-0.352-0.143-0.51
		c-0.049-0.154-0.085-0.257-0.11-0.306l-0.016-0.074l-0.453-1.942c0.008-0.026-0.009-0.083-0.055-0.167s-0.071-0.139-0.078-0.163
		L11.2,15.738c-0.002-0.011-0.002-0.022,0.003-0.03s0.005-0.018,0.004-0.031c-0.015-0.063-0.053-0.221-0.116-0.475
		c-0.062-0.253-0.133-0.524-0.211-0.815c-0.079-0.288-0.152-0.56-0.221-0.811c-0.069-0.252-0.11-0.41-0.127-0.475
		c-0.023-0.114-0.061-0.292-0.109-0.537c-0.045-0.242-0.097-0.494-0.147-0.757c-0.052-0.261-0.097-0.5-0.14-0.719
		c-0.042-0.219-0.065-0.366-0.068-0.446c-0.05-0.337-0.03-0.659,0.053-0.973c0.084-0.313,0.217-0.592,0.394-0.838
		c0.178-0.248,0.405-0.453,0.674-0.622c0.271-0.166,0.572-0.273,0.91-0.322c0.544-0.08,0.952-0.039,1.23,0.127
		c0.276,0.166,0.48,0.403,0.618,0.714c0.135,0.308,0.226,0.671,0.271,1.081c0.043,0.409,0.103,0.806,0.177,1.192
		c0.025,0.115,0.053,0.288,0.095,0.52c0.038,0.23,0.079,0.461,0.124,0.694c0.045,0.229,0.086,0.433,0.126,0.612
		c0.039,0.178,0.069,0.284,0.091,0.32C14.86,13.287,14.917,13.53,15,13.87c0.084,0.343,0.173,0.706,0.272,1.091
		c0.1,0.386,0.196,0.748,0.294,1.086c0.095,0.341,0.155,0.575,0.186,0.701l0.005,0.12l1.127,4.331
		c0.02,0.279,0.056,0.548,0.108,0.811c0.049,0.263,0.111,0.521,0.182,0.778c0.071,0.258,0.138,0.523,0.196,0.789
		c0.061,0.268,0.106,0.538,0.142,0.81l0.008,0.038c0.009,0.038,0.01,0.101,0.01,0.187c0,0.09-0.001,0.176-0.001,0.262
		c0,0.088,0,0.171-0.004,0.251c-0.003,0.081,0,0.135,0.005,0.158c-0.021,0.034-0.048,0.052-0.086,0.06l-0.097,0.024l-0.018,0.004
		l-0.076,0.016c-0.026,0.007-0.047,0.005-0.063-0.008c-0.03-0.018-0.049-0.033-0.052-0.047c-0.232,0.038-0.377,0.099-0.439,0.18
		s-0.104,0.169-0.122,0.265c-0.017,0.098-0.044,0.19-0.078,0.268c-0.036,0.081-0.139,0.135-0.307,0.157
		c-0.132,0.017-0.235-0.01-0.319-0.077C15.791,26.054,15.699,26.024,15.593,26.034z M13.97,25.755c-0.055,0-0.076,0.021-0.064,0.065
		c0.009,0.044,0.041,0.067,0.094,0.067c0.025-0.004,0.033-0.03,0.024-0.074C14.014,25.769,13.994,25.751,13.97,25.755z
		 M15.532,25.587c-0.049,0.013-0.07,0.049-0.062,0.115s0.037,0.092,0.089,0.08c0.024-0.007,0.033-0.039,0.025-0.105
		C15.577,25.611,15.56,25.581,15.532,25.587z M16.382,24.897c-0.063,0.015-0.092,0.051-0.085,0.109
		c0.007,0.06,0.04,0.081,0.103,0.067c0.039-0.009,0.056-0.043,0.05-0.103C16.442,24.914,16.421,24.89,16.382,24.897z M16.312,25.394
		c0.021-0.017,0.04-0.039,0.057-0.062c0.015-0.023,0.03-0.043,0.057-0.064l-0.014-0.056l0.011-0.042L16.312,25.394z M16.457,25.503
		c-0.064,0.015-0.093,0.053-0.084,0.117c0.009,0.066,0.042,0.092,0.107,0.078c0.038-0.01,0.052-0.047,0.043-0.113
		C16.517,25.521,16.495,25.495,16.457,25.503z"/>
	<path fill="#FFFFFF" d="M22.184,24.327l-0.044-0.19c-0.167-0.041-0.312-0.076-0.423-0.104c-0.114-0.028-0.218-0.052-0.316-0.072
		c-0.097-0.016-0.156-0.036-0.173-0.061c-0.102-0.031-0.184-0.099-0.246-0.205c-0.064-0.105-0.131-0.189-0.199-0.255
		c-0.173-0.122-0.354-0.244-0.54-0.36c-0.186-0.121-0.352-0.235-0.5-0.35c-0.131-0.118-0.225-0.228-0.271-0.33
		c-0.049-0.103-0.132-0.209-0.249-0.316l-0.077,0.116l-0.018,0.006l-0.076,0.015c-0.106-0.173-0.192-0.324-0.262-0.45
		c-0.067-0.126-0.125-0.247-0.172-0.363c-0.043-0.116-0.08-0.235-0.106-0.355c-0.027-0.122-0.059-0.258-0.091-0.41
		c-0.043-0.191-0.102-0.458-0.181-0.801c-0.075-0.345-0.155-0.706-0.23-1.091c-0.08-0.383-0.144-0.745-0.193-1.091
		c-0.05-0.34-0.069-0.607-0.058-0.797c0.096-0.046,0.121-0.117,0.074-0.207c-0.046-0.089-0.067-0.155-0.064-0.194
		c0.005-0.281,0.039-0.591,0.104-0.934c0.064-0.345,0.122-0.639,0.173-0.892c-0.005-0.023,0.001-0.045,0.024-0.066
		c0.021-0.018,0.033-0.038,0.025-0.063c0.023-0.019,0.049-0.111,0.08-0.277c0.028-0.169,0.048-0.265,0.053-0.294
		c0.01-0.015,0.069-0.085,0.174-0.208c0.107-0.124,0.217-0.254,0.335-0.386c0.116-0.132,0.235-0.252,0.354-0.358
		c0.115-0.107,0.194-0.156,0.233-0.152c0.025-0.005,0.055,0.016,0.084,0.06c0.031,0.048,0.038,0.087,0.016,0.118
		c0.05-0.078,0.118-0.148,0.203-0.214c0.086-0.066,0.172-0.111,0.262-0.13c0.018,0.078,0.053,0.168,0.102,0.279
		c0.053,0.108,0.138,0.165,0.259,0.162c0.036-0.008,0.078-0.035,0.12-0.086c0.042-0.049,0.09-0.101,0.143-0.162
		c0.055-0.059,0.112-0.118,0.172-0.178c0.061-0.061,0.121-0.099,0.186-0.113l0.061,0.268c0.076-0.017,0.21-0.022,0.405-0.021
		c0.194,0.004,0.334,0.024,0.424,0.058c0.024-0.006,0.048,0.019,0.076,0.072c0.023,0.055,0.05,0.079,0.076,0.073
		c0.016,0.01,0.052,0.015,0.113,0.015c0.06,0.001,0.097-0.001,0.108-0.004c-0.242,1.069-0.374,2.094-0.398,3.075
		c-0.021,0.978,0.148,2.01,0.507,3.09c0.027,0.115,0.075,0.279,0.143,0.501c0.067,0.216,0.15,0.43,0.244,0.645
		c0.094,0.213,0.204,0.396,0.332,0.545c0.127,0.155,0.267,0.214,0.42,0.178l0.134-0.029l1.152-1.114
		c0.017,0.008,0.061-0.05,0.133-0.174c0.072-0.12,0.155-0.265,0.246-0.425c0.093-0.159,0.189-0.316,0.295-0.478
		c0.105-0.155,0.191-0.265,0.254-0.333c0.066-0.31,0.1-0.679,0.105-1.106c0.004-0.428-0.021-0.863-0.078-1.303
		c-0.059-0.439-0.143-0.864-0.254-1.268c-0.107-0.402-0.237-0.729-0.388-0.974c-0.173-0.243-0.348-0.437-0.52-0.577
		c-0.171-0.142-0.346-0.258-0.527-0.352c-0.18-0.093-0.372-0.169-0.573-0.233c-0.201-0.062-0.416-0.135-0.647-0.216
		c-0.028-0.006-0.028-0.035,0.002-0.082l0.028-0.046c-0.14,0.032-0.271,0.017-0.387-0.043c-0.123-0.059-0.241-0.126-0.355-0.202
		c-0.117-0.074-0.24-0.141-0.366-0.199c-0.126-0.058-0.255-0.075-0.381-0.046c0.017-0.11,0.044-0.203,0.089-0.279
		c0.042-0.076,0.102-0.122,0.178-0.139c-0.014-0.063-0.018-0.12-0.009-0.171c0.01-0.046-0.061-0.081-0.214-0.102
		c-0.024,0.007-0.047,0.017-0.07,0.037c-0.046,0.038-0.078,0.07-0.096,0.104c0.002,0.012,0.016,0.026,0.038,0.04
		c0.023,0.015,0.036,0.03,0.039,0.042l0.057-0.013c0.007,0.025,0.005,0.065-0.004,0.121c-0.008,0.055-0.028,0.088-0.067,0.097
		c-0.065,0.014-0.174,0.013-0.328,0.001c-0.158-0.011-0.267-0.03-0.324-0.057l0.073-0.118c-0.116-0.04-0.237-0.06-0.362-0.06
		c-0.128,0.001-0.229,0.013-0.306,0.029c0.145-0.074,0.256-0.158,0.333-0.255c0.078-0.099,0.151-0.201,0.223-0.311
		c0.069-0.108,0.148-0.204,0.235-0.292c0.088-0.085,0.214-0.147,0.379-0.184l0.044,0.19c0.01-0.069,0.046-0.114,0.109-0.134
		c0.062-0.02,0.112-0.035,0.149-0.043c0.022,0.101,0.009,0.188-0.04,0.259c-0.053,0.07-0.106,0.133-0.16,0.185
		c0.483-0.041,0.991-0.056,1.521-0.048c0.529,0.012,1.022,0.024,1.481,0.042c0.139,0.023,0.271,0.061,0.396,0.112
		c0.126,0.052,0.238,0.067,0.341,0.045c0.013-0.003,0.03-0.014,0.053-0.032c0.044-0.038,0.081-0.058,0.107-0.063
		c-0.149-0.008-0.29-0.034-0.42-0.078c-0.129-0.044-0.258-0.085-0.388-0.123c-0.128-0.039-0.258-0.069-0.392-0.092
		c-0.132-0.024-0.281-0.02-0.446,0.017c-0.02-0.075-0.081-0.111-0.192-0.105c-0.113,0.003-0.184-0.051-0.21-0.165l0.575-0.128
		l0.021,0.097c0.075-0.018,0.228-0.012,0.452,0.018c0.229,0.03,0.459,0.077,0.695,0.146c0.236,0.067,0.45,0.144,0.644,0.228
		c0.189,0.083,0.295,0.165,0.312,0.241c0.025,0.114,0.014,0.209-0.037,0.288c0.027-0.006,0.055-0.025,0.088-0.06
		c0.033-0.034,0.055-0.052,0.066-0.056l0.057-0.013c0.09-0.019,0.188,0.008,0.301,0.084c0.109,0.077,0.215,0.172,0.314,0.291
		c0.098,0.118,0.186,0.241,0.252,0.365c0.066,0.125,0.109,0.225,0.129,0.301c0.037-0.009,0.096,0.006,0.178,0.042
		c0.08,0.035,0.164,0.079,0.248,0.134c0.088,0.054,0.162,0.114,0.223,0.182c0.061,0.066,0.084,0.128,0.072,0.184l0.645,0.836
		c0.006,0.013,0.02,0.054,0.047,0.12c0.025,0.066,0.061,0.141,0.098,0.219c0.039,0.08,0.076,0.15,0.111,0.215
		c0.033,0.065,0.064,0.103,0.092,0.109l0.051-0.131c-0.029-0.073-0.057-0.14-0.084-0.2c-0.027-0.062-0.049-0.116-0.064-0.166
		c-0.021-0.05-0.035-0.1-0.045-0.151c-0.084-0.193-0.223-0.387-0.41-0.58c-0.189-0.191-0.305-0.382-0.348-0.574l0.211-0.046
		c0.041,0.072,0.09,0.134,0.141,0.189c0.041,0.058,0.082,0.114,0.127,0.172c0.047,0.055,0.088,0.105,0.125,0.151
		c0.207,0.261,0.391,0.562,0.551,0.899c0.162,0.336,0.279,0.671,0.354,1.001l0.045,0.211c0.008,0.026-0.014,0.081-0.062,0.165
		c-0.047,0.083-0.068,0.133-0.066,0.146c0.027,0.061,0.07,0.23,0.133,0.511c0.062,0.281,0.115,0.595,0.16,0.943
		c0.047,0.353,0.074,0.701,0.084,1.055c0.01,0.35-0.021,0.622-0.098,0.813c-0.146,0.485-0.342,0.956-0.59,1.41
		c-0.244,0.456-0.533,0.885-0.865,1.283c-0.33,0.402-0.691,0.775-1.08,1.123c-0.391,0.348-0.799,0.647-1.221,0.902
		c-0.154,0.089-0.285,0.17-0.387,0.247c-0.103,0.077-0.208,0.149-0.312,0.218c-0.105,0.074-0.218,0.134-0.338,0.188
		c-0.122,0.053-0.267,0.101-0.432,0.135c-0.176,0.041-0.337,0.072-0.479,0.098s-0.302,0.025-0.48-0.003l-0.054,0.212
		c-0.045-0.017-0.091-0.043-0.138-0.079c-0.049-0.038-0.086-0.083-0.113-0.146l-0.283,0.344c-0.043,0.051-0.087,0.065-0.131,0.047
		c-0.044-0.015-0.081-0.045-0.108-0.084c-0.027-0.042-0.053-0.086-0.068-0.134c-0.019-0.052-0.022-0.081-0.013-0.1L22.184,24.327z
		 M18.153,14.771c-0.037,0.01-0.05,0.044-0.035,0.108c0.016,0.063,0.039,0.091,0.077,0.083c0.026-0.007,0.034-0.041,0.019-0.104
		C18.2,14.793,18.18,14.766,18.153,14.771z M19.061,21.818c-0.038,0.009-0.051,0.036-0.042,0.081
		c0.01,0.044,0.034,0.062,0.071,0.053C19.121,21.907,19.111,21.859,19.061,21.818z M20.728,11.035
		c-0.012-0.05-0.057-0.069-0.132-0.053c-0.078,0.017-0.096,0.05-0.059,0.095c0.03,0.02,0.065,0.025,0.104,0.017
		C20.678,11.085,20.705,11.066,20.728,11.035z M20.73,10.773c0.012-0.054-0.003-0.08-0.047-0.069
		c-0.045,0.01-0.049,0.039-0.013,0.083c0.005,0.014,0.015,0.018,0.034,0.014C20.724,10.796,20.731,10.788,20.73,10.773z
		 M20.84,12.893c-0.051,0.011-0.071,0.044-0.058,0.101c0.013,0.057,0.045,0.082,0.097,0.07c0.049-0.011,0.07-0.046,0.057-0.104
		C20.921,12.903,20.892,12.882,20.84,12.893z M21.008,10.771c0.02-0.03,0.005-0.04-0.047-0.028c-0.049,0.012-0.06,0.026-0.028,0.044
		c0.005,0.027,0.021,0.038,0.047,0.032C21.004,10.814,21.014,10.798,21.008,10.771z M21.008,13.656
		c-0.049,0.011-0.067,0.049-0.055,0.112c0.015,0.063,0.047,0.09,0.1,0.077c0.051-0.01,0.068-0.048,0.053-0.111
		C21.092,13.67,21.061,13.644,21.008,13.656z M21.238,13.064c-0.026,0.005-0.032,0.04-0.017,0.104
		c0.014,0.063,0.033,0.092,0.06,0.086c0.039-0.008,0.052-0.044,0.035-0.108C21.304,13.083,21.277,13.056,21.238,13.064z
		 M21.739,11.351c-0.065,0.014-0.089,0.053-0.075,0.116c0.013,0.063,0.053,0.088,0.117,0.074c0.037-0.009,0.049-0.044,0.036-0.108
		C21.805,11.369,21.775,11.342,21.739,11.351z M22.494,24.197c-0.038,0.008-0.052,0.038-0.041,0.082
		c0.009,0.042,0.033,0.063,0.07,0.056c0.063-0.015,0.09-0.049,0.082-0.089C22.595,24.201,22.558,24.184,22.494,24.197z M22.8,24.13
		c-0.063,0.015-0.089,0.045-0.08,0.09c0.009,0.042,0.045,0.06,0.11,0.044c0.037-0.008,0.052-0.035,0.042-0.076
		C22.863,24.143,22.837,24.122,22.8,24.13z M22.942,11.003c-0.016-0.01-0.02,0.006-0.008,0.052c0.008,0.044,0.017,0.052,0.025,0.024
		c0.037-0.008,0.054-0.025,0.047-0.051C23.003,11.003,22.979,10.995,22.942,11.003z M24.745,11.903
		c-0.038,0.008-0.051,0.044-0.036,0.107c0.014,0.065,0.04,0.092,0.079,0.083c0.062-0.014,0.089-0.051,0.072-0.116
		C24.849,11.914,24.808,11.888,24.745,11.903z M25.369,10.742c-0.064,0.014-0.088,0.053-0.074,0.118
		c0.014,0.063,0.053,0.086,0.115,0.072c0.025-0.006,0.031-0.038,0.018-0.102C25.412,10.767,25.395,10.737,25.369,10.742z
		 M25.48,10.978c-0.025,0.007-0.029,0.041-0.016,0.104c0.014,0.064,0.033,0.092,0.057,0.087c0.053-0.012,0.07-0.049,0.059-0.113
		C25.564,10.993,25.531,10.967,25.48,10.978z M25.605,11.091c-0.051,0.011-0.07,0.039-0.061,0.083
		c0.012,0.045,0.039,0.062,0.092,0.049c0.051-0.011,0.07-0.037,0.061-0.083C25.689,11.097,25.658,11.08,25.605,11.091z
		 M25.807,11.186c-0.037,0.008-0.049,0.043-0.037,0.107c0.016,0.065,0.043,0.093,0.082,0.084c0.049-0.011,0.068-0.048,0.055-0.113
		C25.891,11.2,25.859,11.174,25.807,11.186z M25.93,11.28c-0.053,0.011-0.07,0.047-0.055,0.111c0.012,0.064,0.045,0.09,0.096,0.079
		c0.039-0.007,0.049-0.045,0.037-0.109C25.992,11.298,25.967,11.272,25.93,11.28z M26.047,11.454
		c-0.037,0.009-0.053,0.038-0.039,0.089c0.01,0.05,0.037,0.072,0.074,0.063c0.062-0.014,0.088-0.046,0.076-0.097
		C26.148,11.458,26.109,11.439,26.047,11.454z M26.195,11.58c-0.062,0.014-0.088,0.054-0.072,0.117
		c0.014,0.066,0.053,0.088,0.115,0.074c0.037-0.008,0.051-0.043,0.035-0.107C26.262,11.599,26.234,11.571,26.195,11.58z
		 M26.373,11.661c-0.039,0.01-0.051,0.04-0.039,0.098c0.014,0.057,0.039,0.083,0.078,0.074c0.062-0.014,0.09-0.052,0.078-0.108
		C26.475,11.667,26.438,11.647,26.373,11.661z M26.85,22.168c-0.039,0.008-0.049,0.045-0.035,0.109
		c0.014,0.062,0.039,0.09,0.078,0.082c0.037-0.008,0.049-0.045,0.035-0.107C26.912,22.188,26.887,22.161,26.85,22.168z
		 M27.023,22.05c-0.062,0.015-0.088,0.05-0.076,0.107c0.014,0.058,0.051,0.078,0.113,0.064c0.039-0.009,0.051-0.041,0.037-0.1
		C27.086,22.064,27.061,22.043,27.023,22.05z M27.234,21.743c-0.037,0.008-0.051,0.034-0.041,0.077
		c0.01,0.045,0.031,0.065,0.072,0.058c0.037-0.009,0.053-0.037,0.041-0.081C27.297,21.753,27.273,21.732,27.234,21.743z
		 M27.725,19.351c-0.039,0.01-0.051,0.045-0.037,0.108c0.014,0.062,0.041,0.093,0.08,0.081c0.049-0.011,0.068-0.047,0.055-0.11
		C27.809,19.367,27.775,19.341,27.725,19.351z M28.746,14.218c-0.041,0.008-0.051,0.044-0.037,0.107s0.039,0.092,0.076,0.083
		c0.066-0.014,0.09-0.053,0.076-0.117C28.848,14.228,28.809,14.203,28.746,14.218z"/>
	<path fill="#FFFFFF" d="M45.406,20.701c-0.025,0.006-0.031,0.032-0.023,0.077c0.012,0.045,0.029,0.062,0.055,0.057l0.02-0.004
		l0.186,0.841c0.004,0.014,0.02,0.037,0.049,0.079c0.029,0.04,0.045,0.073,0.051,0.099c0.047,0.03,0.068,0.037,0.066,0.027
		l0.006,0.019l-0.25,0.055c0.012,0.052,0.02,0.169,0.029,0.352c0.008,0.188,0.008,0.387,0.002,0.602
		c-0.006,0.214-0.012,0.408-0.021,0.575c-0.01,0.17-0.025,0.262-0.047,0.282l0.115,0.073c-0.041,0.05-0.09,0.153-0.143,0.303
		c-0.051,0.153-0.109,0.304-0.17,0.457c-0.057,0.154-0.109,0.294-0.156,0.417s-0.074,0.188-0.088,0.188
		c0.035,0.046,0.084,0.064,0.143,0.059c0.061-0.006,0.105-0.028,0.139-0.059c-0.08,0.124-0.125,0.23-0.139,0.331
		c-0.012,0.096-0.031,0.191-0.055,0.29c-0.025,0.101-0.072,0.195-0.146,0.293c-0.07,0.097-0.209,0.201-0.408,0.311l0.094,0.062
		c-0.189,0.174-0.389,0.374-0.598,0.6c-0.211,0.228-0.457,0.373-0.734,0.437c-0.012,0.014-0.016,0.027-0.012,0.041
		c0.008,0.039,0.02,0.062,0.037,0.073c0.004,0.026,0.029,0.052,0.076,0.084c0.049,0.027,0.086,0.048,0.113,0.052
		c-0.121,0-0.223,0.033-0.307,0.098c-0.086,0.067-0.166,0.143-0.242,0.224c-0.076,0.086-0.146,0.167-0.217,0.24
		c-0.068,0.076-0.162,0.128-0.277,0.151c-0.064,0.016-0.121,0.008-0.174-0.019c-0.055-0.028-0.111-0.035-0.176-0.022
		c-0.1,0.023-0.145,0.073-0.125,0.149c0.014,0.074,0.006,0.126-0.031,0.146c-0.016,0.029-0.068,0.065-0.146,0.103
		c-0.078,0.038-0.145,0.076-0.203,0.113l-0.078,0.016c-0.047,0.027-0.146,0.073-0.299,0.139c-0.152,0.068-0.311,0.141-0.482,0.22
		c-0.17,0.077-0.328,0.149-0.482,0.215c-0.148,0.068-0.252,0.106-0.305,0.121c-0.045,0.034-0.131,0.081-0.26,0.135
		c-0.127,0.058-0.197,0.084-0.209,0.088c-0.027,0.005-0.078,0.004-0.152-0.008c-0.074-0.008-0.123-0.023-0.141-0.049l0.926-0.344
		l-0.107-0.118c-0.275,0.089-0.572,0.159-0.895,0.211c-0.322,0.053-0.656,0.077-0.994,0.08c-0.34,0.002-0.67-0.025-0.988-0.08
		c-0.322-0.056-0.613-0.146-0.883-0.272l0.266-0.06l-0.045-0.031c-0.049-0.031-0.082-0.041-0.107-0.034
		c-0.039-0.047-0.131-0.086-0.277-0.12c-0.146-0.033-0.25-0.058-0.307-0.071l0.076-0.101l-0.105-0.033l0.094-0.021
		c0.102-0.023,0.203-0.037,0.303-0.038c0.1-0.003,0.199-0.014,0.303-0.038c-0.004-0.012-0.039-0.041-0.111-0.086
		c-0.07-0.043-0.15-0.087-0.246-0.125c-0.094-0.039-0.193-0.073-0.293-0.103c-0.1-0.031-0.178-0.044-0.227-0.031
		c0.01-0.015,0.006-0.073-0.01-0.169c-0.014-0.095-0.035-0.2-0.057-0.308c-0.025-0.106-0.049-0.206-0.076-0.292
		c-0.025-0.089-0.041-0.145-0.047-0.17c-0.021-0.102-0.059-0.172-0.105-0.207c-0.051-0.037-0.123-0.07-0.225-0.1l0.061-0.094
		l0.02-0.004c0.164-0.037,0.301-0.019,0.402,0.06c0.104,0.075,0.232,0.101,0.387,0.065l0.109,0.134
		c0.023-0.017,0.047-0.054,0.076-0.106c0.027-0.054,0.051-0.095,0.072-0.126l-0.006-0.018c-0.016-0.077-0.055-0.152-0.119-0.228
		c-0.064-0.068-0.102-0.137-0.115-0.2l-0.033-0.153c0.016,0.01,0.123,0.012,0.324,0.008c0.197-0.006,0.416-0.008,0.654-0.017
		c0.238-0.007,0.467-0.014,0.686-0.022c0.217-0.009,0.354-0.018,0.406-0.029c0.305-0.069,0.646-0.202,1.031-0.4
		c0.381-0.198,0.746-0.437,1.092-0.714c0.346-0.276,0.652-0.583,0.918-0.916s0.436-0.674,0.504-1.024
		c0.059-0.211,0.143-0.435,0.25-0.664c0.111-0.231,0.145-0.444,0.102-0.634l-0.061-0.269l-0.148-0.125
		c-0.025-0.114-0.033-0.204-0.031-0.265c0.01-0.061,0.02-0.118,0.037-0.166c0.014-0.051,0.027-0.101,0.035-0.15
		c0.01-0.049,0.006-0.109-0.01-0.187c-0.01-0.038-0.018-0.089-0.025-0.155s-0.045-0.096-0.111-0.096
		c-0.039-0.23-0.059-0.354-0.061-0.366c-0.006-0.012-0.008-0.005-0.016,0.021c-0.008,0.028-0.027,0.044-0.053,0.043
		c-0.025,0-0.082-0.104-0.168-0.312c-0.059-0.147-0.137-0.362-0.236-0.648c-0.096-0.286-0.207-0.579-0.336-0.885
		c-0.127-0.307-0.268-0.596-0.41-0.862c-0.148-0.267-0.291-0.452-0.438-0.555l-0.264,0.42l-0.137-0.067
		c-0.047-0.03-0.035-0.101,0.035-0.212c0.068-0.104,0.131-0.215,0.188-0.32c-0.236,0.307-0.443,0.587-0.613,0.837
		c-0.172,0.252-0.357,0.534-0.555,0.845l0.025,0.116c-0.01,0.08-0.043,0.147-0.105,0.193c-0.064,0.047-0.131,0.089-0.203,0.124
		c-0.072,0.038-0.131,0.081-0.182,0.143c-0.045,0.056-0.059,0.136-0.035,0.237l0.008,0.04c0.027-0.007,0.07-0.032,0.137-0.071
		c0.062-0.041,0.102-0.064,0.113-0.066c0.148-0.059,0.266-0.153,0.35-0.278c0.086-0.127,0.164-0.267,0.229-0.421
		s0.127-0.306,0.188-0.452s0.131-0.276,0.215-0.389l0.098,0.077c0.09,0.049,0.068,0.181-0.062,0.396
		c-0.131,0.217-0.285,0.453-0.453,0.709c-0.17,0.261-0.32,0.514-0.453,0.761c-0.129,0.252-0.15,0.427-0.062,0.527
		c-0.068,0.043-0.176,0.098-0.322,0.163s-0.295,0.135-0.443,0.207c-0.152,0.075-0.287,0.15-0.412,0.231
		c-0.121,0.08-0.201,0.159-0.238,0.233l0.535-0.118c-0.07,0.109-0.176,0.202-0.316,0.282c-0.143,0.075-0.279,0.132-0.408,0.16
		l-0.145-0.028c-0.014,0.002-0.1,0-0.262-0.014c-0.164-0.008-0.258-0.011-0.283-0.005c-0.012,0.003-0.043,0.021-0.088,0.057
		c-0.021,0.021-0.047,0.03-0.07,0.038l-0.172,0.036c-0.203,0.045-0.393,0.038-0.566-0.023c-0.174-0.06-0.344-0.133-0.51-0.216
		c-0.166-0.084-0.338-0.154-0.518-0.217c-0.182-0.057-0.375-0.066-0.576-0.02c-0.186-0.122-0.367-0.24-0.539-0.362
		c-0.146-0.112-0.293-0.232-0.441-0.353c-0.146-0.119-0.254-0.247-0.324-0.377c-0.021-0.038-0.051-0.113-0.092-0.232
		c-0.039-0.116-0.105-0.179-0.199-0.184c-0.201-0.423-0.361-0.842-0.479-1.255c-0.121-0.415-0.234-0.861-0.342-1.346l-0.225-1.012
		c-0.008-0.038-0.008-0.071-0.002-0.099c0.016-0.059,0.018-0.092,0.016-0.105c-0.008-0.227-0.023-0.469-0.043-0.732
		c-0.018-0.262-0.031-0.527-0.045-0.791c-0.012-0.262-0.006-0.522,0.016-0.775c0.027-0.251,0.074-0.487,0.146-0.702
		c0.037-0.075,0.109-0.212,0.221-0.41c0.105-0.198,0.225-0.404,0.352-0.619c0.125-0.214,0.242-0.419,0.342-0.618
		c0.105-0.194,0.182-0.331,0.23-0.41c0.123-0.23,0.25-0.418,0.383-0.566c0.135-0.151,0.275-0.287,0.42-0.415
		c0.146-0.124,0.307-0.244,0.48-0.356c0.178-0.112,0.375-0.248,0.594-0.401L34.105,8.7c0.271-0.036,0.553-0.103,0.846-0.209
		c0.291-0.104,0.562-0.185,0.818-0.241c0.621-0.139,1.211-0.193,1.764-0.161c0.557,0.027,1.148,0.113,1.779,0.252
		c0.084,0.023,0.189,0.054,0.311,0.092c0.123,0.04,0.242,0.083,0.361,0.133c0.117,0.046,0.23,0.09,0.348,0.131
		c0.115,0.04,0.215,0.064,0.295,0.074l0.096-0.022c0.17,0.164,0.311,0.372,0.422,0.627c0.111,0.256,0.195,0.524,0.258,0.803
		c0.062,0.28,0.117,0.56,0.164,0.834c0.051,0.276,0.109,0.515,0.182,0.71c0.195,0.586,0.426,1.149,0.686,1.691
		c0.262,0.542,0.529,1.088,0.803,1.635c0.277,0.547,0.549,1.093,0.818,1.641c0.268,0.547,0.5,1.112,0.697,1.697l-0.096,0.021
		c-0.035-0.033-0.062-0.06-0.08-0.083c-0.037-0.045-0.055-0.075-0.057-0.087l-0.072,0.034c0.004,0.029,0.014,0.063,0.033,0.116
		c0.018,0.047,0.041,0.097,0.072,0.142c0.031,0.048,0.068,0.078,0.113,0.095c0.043,0.017,0.084-0.005,0.125-0.066
		c0.119,0.24,0.229,0.489,0.326,0.748c0.096,0.257,0.152,0.54,0.168,0.845c0.025-0.007,0.037-0.016,0.033-0.03
		c0.02,0.104,0.041,0.2,0.055,0.289c0.012,0.092,0.031,0.188,0.055,0.289L45.406,20.701z M31.967,18.888
		c-0.051,0.011-0.07,0.049-0.057,0.113c0.014,0.063,0.047,0.089,0.1,0.077c0.051-0.012,0.068-0.05,0.055-0.112
		C32.049,18.902,32.018,18.877,31.967,18.888z M32.287,18.614c-0.039,0.01-0.051,0.048-0.035,0.11
		c0.014,0.063,0.041,0.091,0.076,0.083c0.039-0.009,0.049-0.045,0.037-0.108C32.352,18.637,32.326,18.607,32.287,18.614z
		 M34.51,21.044l-0.021-0.095l-0.078,0.019L34.51,21.044z M35.586,18.142c0.021,0.09,0.055,0.129,0.105,0.116l0.057-0.013
		c0.031-0.044,0.068-0.109,0.117-0.195c0.049-0.082,0.109-0.17,0.184-0.26c0.072-0.091,0.148-0.174,0.223-0.251
		c0.078-0.079,0.16-0.126,0.248-0.145c0.02-0.032,0.053-0.093,0.1-0.183s0.094-0.185,0.139-0.282
		c0.045-0.099,0.088-0.192,0.125-0.285c0.039-0.097,0.062-0.168,0.066-0.207c0.02-0.033,0.051-0.114,0.092-0.251
		c0.045-0.135,0.07-0.22,0.078-0.246c0.057-0.107,0.113-0.193,0.172-0.26c0.057-0.065,0.111-0.128,0.158-0.186
		s0.084-0.116,0.111-0.177c0.027-0.059,0.043-0.142,0.045-0.249c0.014-0.123,0.041-0.265,0.086-0.431
		c0.043-0.163,0.092-0.328,0.148-0.492c0.057-0.167,0.104-0.324,0.137-0.471c0.033-0.148,0.037-0.279,0.012-0.393
		c-0.004-0.013-0.01-0.021-0.016-0.027c-0.008-0.004-0.012-0.015-0.016-0.026c-0.016-0.009-0.025-0.021-0.027-0.035
		c-0.006-0.013-0.014-0.022-0.029-0.032l-0.047-0.032c0.023-0.016,0.047-0.063,0.07-0.135c0.025-0.072,0.035-0.121,0.027-0.146
		c0-0.013-0.016-0.057-0.037-0.132c-0.023-0.075-0.053-0.151-0.082-0.233c-0.033-0.08-0.059-0.15-0.078-0.212
		c-0.02-0.062-0.039-0.098-0.053-0.108c-0.043-0.191-0.09-0.412-0.141-0.671c-0.049-0.255-0.146-0.441-0.295-0.554l-0.344,0.077
		c-0.57,0.127-1.012,0.408-1.322,0.844c-0.311,0.437-0.523,0.936-0.639,1.495c-0.115,0.56-0.158,1.135-0.125,1.729
		c0.031,0.596,0.094,1.11,0.191,1.538c0.037,0.167,0.068,0.311,0.096,0.431c0.027,0.122,0.061,0.236,0.098,0.351
		c0.039,0.111,0.088,0.227,0.146,0.348C35.43,17.87,35.502,18.002,35.586,18.142z M35.309,20.77
		c-0.064,0.011-0.09,0.046-0.078,0.104c0.014,0.056,0.053,0.082,0.117,0.066c0.037-0.008,0.049-0.043,0.037-0.101
		C35.371,20.78,35.348,20.76,35.309,20.77z M35.627,27.244c-0.049,0.012-0.066,0.049-0.055,0.114c0.016,0.063,0.047,0.087,0.1,0.075
		l0.014-0.022c0.014,0.063,0.041,0.091,0.078,0.082c0.064-0.016,0.09-0.048,0.076-0.107c-0.012-0.056-0.051-0.077-0.113-0.062
		l-0.021,0.003C35.693,27.263,35.668,27.236,35.627,27.244z M35.705,27.326c-0.021,0.021-0.027,0.045-0.02,0.085
		C35.711,27.407,35.719,27.377,35.705,27.326z M35.936,21.066c-0.025,0.007-0.057,0.03-0.094,0.073
		c-0.037,0.042-0.061,0.074-0.066,0.104l0.285-0.064c-0.004-0.024-0.023-0.051-0.055-0.077
		C35.973,21.074,35.949,21.064,35.936,21.066z M36.41,27.068c-0.035,0.009-0.049,0.045-0.035,0.11
		c0.016,0.064,0.039,0.09,0.078,0.081c0.062-0.015,0.088-0.052,0.074-0.114C36.514,27.081,36.475,27.055,36.41,27.068z
		 M36.857,29.175c0.021-0.034,0.008-0.042-0.037-0.034c-0.043,0.009-0.049,0.027-0.018,0.045c0.008,0.037,0.02,0.054,0.039,0.052
		C36.863,29.231,36.867,29.212,36.857,29.175z M37.76,19.46c-0.062,0.015-0.088,0.053-0.072,0.115
		c0.014,0.064,0.051,0.091,0.117,0.077c0.025-0.007,0.031-0.042,0.014-0.105C37.807,19.484,37.787,19.455,37.76,19.46z
		 M37.779,14.95c-0.039,0.009-0.053,0.038-0.041,0.089c0.012,0.052,0.035,0.074,0.074,0.064c0.039-0.008,0.051-0.039,0.041-0.09
		C37.842,14.963,37.818,14.941,37.779,14.95z M38.055,20.234c-0.141,0.033-0.23,0.108-0.271,0.223
		c0.062-0.014,0.129-0.038,0.193-0.074C38.041,20.35,38.068,20.298,38.055,20.234z M37.852,19.239
		c-0.037,0.011-0.051,0.044-0.035,0.109c0.014,0.062,0.041,0.091,0.078,0.081c0.064-0.012,0.09-0.053,0.074-0.115
		C37.957,19.251,37.916,19.227,37.852,19.239z M37.912,18.966c-0.008,0.028,0.008,0.066,0.045,0.112
		c0.037,0.045,0.061,0.065,0.072,0.062l0.209-0.326l-0.102-0.099c-0.033-0.018-0.07,0.007-0.123,0.076
		C37.965,18.867,37.93,18.923,37.912,18.966z M38.311,18.598c0.039-0.063,0.133-0.192,0.283-0.386
		c0.152-0.192,0.311-0.398,0.477-0.614c0.162-0.22,0.312-0.409,0.441-0.581c0.129-0.166,0.189-0.265,0.184-0.289
		c-0.014-0.064-0.029-0.119-0.045-0.162c-0.016-0.041-0.059-0.068-0.125-0.079c0.049-0.012,0.084-0.026,0.107-0.046l0.068-0.054
		l-0.014-0.06c-0.014-0.063-0.006-0.101,0.025-0.114c0.029-0.013,0.014-0.012-0.051,0.002L38.311,18.598z M39.686,28.645
		c-0.064,0.015-0.092,0.051-0.078,0.106c0.014,0.058,0.053,0.079,0.115,0.064c0.025-0.004,0.031-0.036,0.02-0.095
		C39.729,28.665,39.709,28.64,39.686,28.645z M41.078,28.614c-0.051,0.011-0.068,0.047-0.053,0.112
		c0.012,0.063,0.045,0.089,0.098,0.079c0.053-0.013,0.066-0.049,0.055-0.114C41.162,28.629,41.131,28.602,41.078,28.614z
		 M41.828,28.646c-0.062,0.016-0.092,0.045-0.08,0.089c0.01,0.046,0.047,0.062,0.107,0.045c0.043-0.008,0.053-0.03,0.043-0.076
		C41.891,28.659,41.867,28.64,41.828,28.646z M42.869,27.835c-0.049,0.012-0.068,0.049-0.055,0.112
		c0.014,0.062,0.047,0.092,0.096,0.08c0.051-0.011,0.07-0.05,0.057-0.113S42.92,27.825,42.869,27.835z M43.223,25.834
		c-0.023,0.007-0.033,0.058-0.023,0.155c0.01,0.099,0.033,0.208,0.072,0.326s0.078,0.221,0.119,0.312
		c0.043,0.092,0.076,0.137,0.102,0.13c0.01-0.002,0.01-0.054-0.006-0.149c-0.014-0.097-0.037-0.205-0.072-0.324
		c-0.033-0.12-0.07-0.225-0.111-0.316C43.264,25.873,43.236,25.828,43.223,25.834z M43.551,20.375
		c-0.037,0.008-0.051,0.037-0.039,0.088c0.01,0.051,0.037,0.072,0.074,0.064c0.064-0.015,0.09-0.05,0.078-0.098
		C43.652,20.378,43.613,20.359,43.551,20.375z M43.639,26.522c-0.064,0.014-0.088,0.055-0.074,0.117
		c0.014,0.063,0.053,0.089,0.117,0.074c0.037-0.008,0.049-0.044,0.035-0.108S43.676,26.515,43.639,26.522z M44.191,26.218
		c-0.027,0.007-0.039,0.028-0.047,0.062c-0.004,0.036,0.008,0.062,0.041,0.083c-0.047,0.037-0.062,0.07-0.051,0.1
		c0.014,0.031,0,0.084-0.033,0.158c-0.029,0.06-0.068,0.115-0.125,0.169c-0.055,0.053-0.113,0.101-0.176,0.149
		c-0.062,0.047-0.117,0.089-0.162,0.125c-0.047,0.036-0.066,0.062-0.064,0.074l0.457-0.102c0.045-0.049,0.109-0.147,0.197-0.293
		c0.088-0.148,0.129-0.231,0.123-0.258l-0.033-0.152l-0.039,0.008C44.283,26.246,44.256,26.204,44.191,26.218z M43.947,26.655
		l-0.018-0.077l-0.133,0.03L43.947,26.655z M43.885,26.107c-0.023,0.005-0.031,0.038-0.018,0.095
		c0.014,0.059,0.031,0.081,0.057,0.076c0.051-0.01,0.07-0.043,0.057-0.101C43.969,26.12,43.938,26.097,43.885,26.107z
		 M43.996,19.674c-0.062,0.017-0.088,0.055-0.074,0.117c0.016,0.063,0.055,0.089,0.117,0.073c0.027-0.006,0.031-0.04,0.016-0.103
		C44.041,19.699,44.023,19.67,43.996,19.674z M44.02,26.256c-0.051,0.014-0.07,0.048-0.057,0.104s0.045,0.08,0.096,0.069
		c0.051-0.013,0.068-0.044,0.057-0.103C44.102,26.271,44.07,26.245,44.02,26.256z M44.098,20.135
		c-0.043-0.019-0.057,0.016-0.039,0.098c0.02,0.082,0.049,0.111,0.082,0.091C44.146,20.229,44.133,20.165,44.098,20.135z
		 M44.158,20.5c-0.023,0.007-0.031,0.036-0.018,0.093c0.014,0.06,0.031,0.085,0.059,0.078c0.062-0.014,0.088-0.05,0.074-0.107
		C44.264,20.507,44.225,20.485,44.158,20.5z M44.186,26.362c0.002,0.025,0.018,0.034,0.043,0.03
		c0.014-0.004,0.029-0.021,0.051-0.052L44.186,26.362z M44.363,17.991c-0.039,0.008-0.053,0.043-0.037,0.106
		c0.016,0.064,0.043,0.093,0.08,0.085c0.051-0.011,0.068-0.05,0.055-0.112C44.447,18.005,44.414,17.979,44.363,17.991z
		 M44.41,20.986c-0.041-0.004-0.059,0.016-0.047,0.061c0.01,0.042,0.031,0.049,0.062,0.013c0.012-0.002,0.018-0.015,0.01-0.042
		C44.43,20.993,44.42,20.984,44.41,20.986z M44.783,24.105c-0.064,0.015-0.09,0.053-0.074,0.117c0.012,0.062,0.053,0.09,0.115,0.075
		c0.025-0.006,0.033-0.043,0.018-0.104C44.826,24.129,44.809,24.101,44.783,24.105z M44.938,25.433
		c-0.025,0.006-0.033,0.03-0.021,0.075c0.008,0.045,0.025,0.062,0.053,0.058c0.062-0.015,0.088-0.041,0.08-0.087
		C45.037,25.434,45.002,25.418,44.938,25.433z M45.129,20.083c-0.051,0.012-0.07,0.049-0.055,0.113
		c0.014,0.063,0.045,0.09,0.098,0.079c0.039-0.008,0.049-0.046,0.035-0.11C45.193,20.102,45.168,20.075,45.129,20.083z
		 M45.211,20.446c-0.039,0.009-0.053,0.044-0.037,0.108c0.014,0.062,0.037,0.078,0.07,0.046c0.021-0.02,0.029-0.048,0.021-0.087
		C45.256,20.476,45.236,20.454,45.211,20.446z M45.195,19.388c-0.01-0.037-0.006-0.027,0.016,0.026
		c0.018,0.056,0.039,0.132,0.061,0.226c0.02,0.097,0.039,0.192,0.051,0.282c0.014,0.088,0.014,0.157-0.004,0.198
		c-0.016-0.13-0.031-0.251-0.053-0.367C45.244,19.638,45.225,19.515,45.195,19.388z M45.326,22.864
		c-0.023,0.003-0.035,0.028-0.023,0.063c0.008,0.04,0.023,0.055,0.049,0.051C45.42,22.925,45.412,22.885,45.326,22.864z
		 M45.457,20.831l-0.029-0.133c0.049-0.011,0.078,0.001,0.088,0.042C45.523,20.777,45.504,20.809,45.457,20.831z"/>
	<path fill="#FFFFFF" d="M46.07,12.967c-0.053-0.108-0.123-0.278-0.213-0.506c-0.09-0.226-0.193-0.483-0.303-0.772
		c-0.111-0.288-0.229-0.593-0.354-0.913c-0.127-0.318-0.246-0.622-0.363-0.909c-0.117-0.289-0.221-0.546-0.311-0.772
		c-0.092-0.226-0.156-0.396-0.195-0.507c-0.008-0.038-0.023-0.101-0.051-0.188c-0.027-0.089-0.057-0.185-0.096-0.291
		c-0.033-0.104-0.068-0.208-0.098-0.309s-0.049-0.176-0.061-0.227c-0.082-0.368-0.205-0.751-0.365-1.149
		c-0.164-0.398-0.291-0.781-0.387-1.146c-0.018-0.077-0.031-0.193-0.047-0.351c-0.016-0.155-0.037-0.314-0.064-0.475
		c-0.031-0.16-0.061-0.311-0.092-0.449C43.041,3.861,43,3.77,42.953,3.727l-0.125-1.094c-0.018-0.023-0.064-0.065-0.137-0.128
		c-0.078-0.066-0.121-0.102-0.135-0.113l-0.014-0.056l0.01-0.042C42.551,2.28,42.557,2.262,42.57,2.24
		c0.016-0.025,0.02-0.042,0.018-0.054c0.156-0.143,0.354-0.322,0.59-0.542c0.238-0.221,0.49-0.438,0.756-0.658
		c0.266-0.221,0.533-0.409,0.805-0.568c0.271-0.162,0.518-0.26,0.736-0.296l0.039-0.008c0.037-0.009,0.094-0.006,0.17,0.002
		C45.76,0.126,45.84,0.133,45.93,0.14c0.088,0.009,0.172,0.011,0.252,0.015c0.08,0.002,0.141,0.003,0.184,0.007
		c0.004,0.027,0.016,0.045,0.031,0.053c0.031,0.021,0.053,0.031,0.064,0.027c0.371,0.157,0.672,0.401,0.904,0.729
		c0.234,0.329,0.389,0.7,0.467,1.107c0.023,0.103,0.033,0.224,0.031,0.367c-0.004,0.139,0.047,0.23,0.15,0.274
		c0.055,0.723,0.119,1.42,0.195,2.091c0.074,0.67,0.203,1.346,0.381,2.027c0.172,0.643,0.342,1.292,0.514,1.949
		c0.172,0.654,0.297,1.307,0.377,1.958c0.014,0.185-0.016,0.353-0.088,0.51c-0.07,0.155-0.158,0.307-0.26,0.457
		c-0.1,0.15-0.191,0.31-0.283,0.475c-0.09,0.167-0.141,0.345-0.152,0.534l-0.02,0.004l-0.057,0.013l-0.055-0.067
		c-0.014-0.01-0.027-0.029-0.033-0.054l-0.018,0.005c-0.014,0.002-0.029-0.001-0.043-0.011c-0.051,0.011-0.078,0.041-0.08,0.087
		c-0.002,0.049-0.004,0.098-0.004,0.151c-0.004,0.053-0.016,0.105-0.041,0.148c-0.021,0.045-0.074,0.064-0.156,0.057
		c-0.016-0.01-0.049-0.042-0.102-0.098c-0.053-0.055-0.092-0.081-0.117-0.075c-0.053,0-0.143,0.042-0.271,0.131
		c-0.129,0.087-0.199,0.159-0.211,0.215c-0.029-0.005-0.068-0.026-0.115-0.062s-0.082-0.066-0.1-0.089l-0.041-0.009
		c-0.078,0.018-0.131,0.081-0.16,0.193c-0.025,0.114-0.107,0.178-0.234,0.193c-0.223,0.024-0.379,0.002-0.467-0.065
		C46.287,13.321,46.186,13.181,46.07,12.967z M47.475,17.658c-0.068-0.303-0.053-0.621,0.049-0.951
		c0.1-0.327,0.254-0.639,0.463-0.933s0.459-0.546,0.752-0.76c0.295-0.212,0.592-0.352,0.896-0.42
		c0.154-0.034,0.318-0.037,0.498-0.011c0.182,0.027,0.354,0.084,0.521,0.166c0.162,0.084,0.307,0.191,0.43,0.325
		c0.123,0.13,0.205,0.281,0.24,0.445l0.008,0.04c0.012,0.718-0.168,1.361-0.541,1.934c-0.375,0.57-0.943,0.939-1.705,1.109
		c-0.33,0.072-0.662,0.033-0.988-0.121C47.77,18.328,47.562,18.055,47.475,17.658z"/>
</g>
</svg>
