<?xml version="1.0" encoding="utf-8"?>
<!-- Generator: Adobe Illustrator 16.0.0, SVG Export Plug-In . SVG Version: 6.00 Build 0)  -->
<!DOCTYPE svg PUBLIC "-//W3C//DTD SVG 1.1//EN" "http://www.w3.org/Graphics/SVG/1.1/DTD/svg11.dtd">
<svg version="1.1" id="Layer_1" xmlns="http://www.w3.org/2000/svg" xmlns:xlink="http://www.w3.org/1999/xlink" x="0px" y="0px"
	 width="35.543px" height="33.788px" viewBox="5.899 -1.895 35.543 33.788" enable-background="new 5.899 -1.895 35.543 33.788"
	 xml:space="preserve">
<path fill="#FFFFFF" d="M36.871,0.104H10.48c-0.935,0-1.705,0.767-1.705,1.703v26.382c0,0.934,0.77,1.705,1.705,1.705h15.063V17.947
	h-3.156V13.64h3.156c0,0,0-1.759,0-3.672c0-2.886,1.873-5.545,6.166-5.545c1.744,0,3.031,0.17,3.031,0.17l-0.098,4.023
	c0,0-1.312-0.019-2.75-0.019c-1.551,0-1.797,0.718-1.797,1.899c0,0.147,0,0.202,0,0.202c0,0.339,0,1.144,0,2.94h4.672l-0.217,4.308
	h-4.455v11.947h6.775c0.93,0,1.695-0.771,1.695-1.705V1.808C38.566,0.871,37.801,0.104,36.871,0.104z"/>
</svg>
