<?xml version="1.0" encoding="utf-8"?>
<!-- Generator: Adobe Illustrator 16.0.0, SVG Export Plug-In . SVG Version: 6.00 Build 0)  -->
<!DOCTYPE svg PUBLIC "-//W3C//DTD SVG 1.1//EN" "http://www.w3.org/Graphics/SVG/1.1/DTD/svg11.dtd">
<svg version="1.1" id="Layer_1" xmlns="http://www.w3.org/2000/svg" xmlns:xlink="http://www.w3.org/1999/xlink" x="0px" y="0px"
	 width="35.543px" height="33.788px" viewBox="5.899 -1.895 35.543 33.788" enable-background="new 5.899 -1.895 35.543 33.788"
	 xml:space="preserve">
<path fill="#FFFFFF" d="M35.021,0.104H12.319c-1.958,0-3.548,1.584-3.548,3.535v22.722c0,1.945,1.59,3.533,3.548,3.533h22.702
	c1.952,0,3.549-1.588,3.549-3.533V3.64C38.57,1.688,36.974,0.104,35.021,0.104z M29.47,4.33c0-0.452,0.367-0.83,0.828-0.83h4.025
	c0.47,0,0.846,0.378,0.846,0.83v4.024c0,0.453-0.376,0.83-0.846,0.83h-4.025c-0.461,0-0.828-0.377-0.828-0.83V4.33z M23.703,9.318
	c3.156,0,5.727,2.566,5.727,5.719c0,3.154-2.57,5.705-5.727,5.705c-3.166,0-5.722-2.551-5.722-5.705
	C17.981,11.885,20.537,9.318,23.703,9.318z M35.23,25.605c0,0.457-0.376,0.824-0.83,0.824h-21.39c-0.459,0-0.837-0.367-0.837-0.824
	v-12.96h2.789c-0.208,0.762-0.315,1.562-0.315,2.392c0,4.98,4.063,9.037,9.056,9.037c4.998,0,9.06-4.057,9.06-9.037
	c0-0.83-0.113-1.63-0.312-2.392h2.78V25.605z"/>
</svg>
