<?xml version="1.0" encoding="utf-8"?>
<!-- Generator: Adobe Illustrator 16.0.0, SVG Export Plug-In . SVG Version: 6.00 Build 0)  -->
<!DOCTYPE svg PUBLIC "-//W3C//DTD SVG 1.1//EN" "http://www.w3.org/Graphics/SVG/1.1/DTD/svg11.dtd">
<svg version="1.1" id="Layer_1" xmlns="http://www.w3.org/2000/svg" xmlns:xlink="http://www.w3.org/1999/xlink" x="0px" y="0px"
	 width="44.031px" height="33.788px" viewBox="1.261 -1.895 44.031 33.788" enable-background="new 1.261 -1.895 44.031 33.788"
	 xml:space="preserve">
<g>
	<path fill="#FFFFFF" d="M42.213,24.574c0,0.834-0.236,1.604-0.609,2.297l-12.07-13.508L41.475,2.892
		c0.471,0.749,0.738,1.607,0.738,2.548V24.574z M23.08,15.803L39.703,1.254c-0.662-0.373-1.441-0.601-2.281-0.601H8.725
		c-0.842,0-1.605,0.228-2.278,0.601L23.08,15.803z M27.715,14.931l-3.84,3.37c-0.24,0.193-0.512,0.295-0.795,0.295
		c-0.291,0-0.564-0.102-0.779-0.295l-3.852-3.37L6.217,28.621c0.727,0.449,1.585,0.725,2.508,0.725h28.697
		c0.947,0,1.797-0.275,2.527-0.725L27.715,14.931z M4.694,2.892c-0.47,0.749-0.749,1.607-0.749,2.548v19.135
		c0,0.834,0.229,1.604,0.617,2.297l12.086-13.508L4.694,2.892z M4.694,2.892"/>
</g>
</svg>
