<?xml version="1.0" encoding="utf-8"?>
<!-- Generator: Adobe Illustrator 16.0.0, SVG Export Plug-In . SVG Version: 6.00 Build 0)  -->
<!DOCTYPE svg PUBLIC "-//W3C//DTD SVG 1.1//EN" "http://www.w3.org/Graphics/SVG/1.1/DTD/svg11.dtd">
<svg version="1.1" id="Layer_1" xmlns="http://www.w3.org/2000/svg" xmlns:xlink="http://www.w3.org/1999/xlink" x="0px" y="0px"
	 width="38.268px" height="33.788px" viewBox="3.945 -1.895 38.268 33.788" enable-background="new 3.945 -1.895 38.268 33.788"
	 xml:space="preserve">
<path id="_x31_6_4_" fill="#FFFFFF" d="M40.258,4.227c-1.25,0.539-2.588,0.912-3.988,1.085c-0.01-0.03-0.025-0.048-0.033-0.072
	c1.492-0.873,2.629-2.251,3.195-3.905c-0.424,0.264-2.512,1.436-4.527,1.814c-1.316-1.451-3.211-2.362-5.33-2.362
	c-4.447,0-7.188,3.665-7.188,7.209c0,0.278,0.117,1.417,0.152,1.488C16.545,9.354,11.235,6.471,7.812,2.048
	c-2.454,4.466,0.117,8.331,1.871,9.708c-1.02-0.014-1.997-0.239-2.883-0.626c0.194,3.434,2.673,6.254,5.934,6.952
	c-1.307,0.369-2.865,0.09-3.48-0.063c0.97,2.862,3.615,4.967,6.771,5.119c-4.831,3.547-10.051,3.185-10.124,3.185
	c3.05,1.837,6.65,2.911,10.476,2.89C30.41,29.12,37.617,16.666,36.766,7.727C38.301,7.01,39.533,5.77,40.258,4.227z"/>
</svg>
