<?xml version="1.0" encoding="utf-8"?>
<!-- Generator: Adobe Illustrator 16.0.0, SVG Export Plug-In . SVG Version: 6.00 Build 0)  -->
<!DOCTYPE svg PUBLIC "-//W3C//DTD SVG 1.1//EN" "http://www.w3.org/Graphics/SVG/1.1/DTD/svg11.dtd">
<svg version="1.1" id="Layer_1" xmlns="http://www.w3.org/2000/svg" xmlns:xlink="http://www.w3.org/1999/xlink" x="0px" y="0px"
	 width="40px" height="39.918px" viewBox="0 0 40 39.918" enable-background="new 0 0 40 39.918" xml:space="preserve">
<g>
	<path fill="#FFFFFF" d="M15.347,24.353c-0.018-0.012-0.047-0.021-0.098-0.03c-0.049-0.009-0.086-0.016-0.115-0.022l-0.059,0.012
		l-0.037,0.008c0.004,0.013-0.008,0.04-0.031,0.088c-0.023,0.045-0.039,0.082-0.047,0.11l0.047,0.029l0.049,0.03
		c0.049-0.012,0.055,0.015,0.016,0.075L15.347,24.353z"/>
	<path fill="#FFFFFF" d="M16.437,29.468c-0.002,0.027,0.01,0.039,0.037,0.034c0.025-0.007,0.039-0.022,0.039-0.052
		c0-0.024-0.012-0.035-0.037-0.03C16.448,29.426,16.437,29.442,16.437,29.468z"/>
	<path fill="#FFFFFF" d="M15.394,30.586c0.006,0.056,0.033,0.074,0.086,0.062c0.051-0.013,0.074-0.042,0.068-0.096
		c-0.006-0.052-0.033-0.075-0.084-0.063C15.411,30.501,15.39,30.534,15.394,30.586z"/>
	<path fill="#FFFFFF" d="M15.177,30.563c-0.002,0.051,0.016,0.066,0.057,0.06c0.037-0.009,0.057-0.034,0.061-0.084
		c0.002-0.047-0.018-0.066-0.053-0.059C15.202,30.489,15.181,30.517,15.177,30.563z"/>
	<path fill="#FFFFFF" d="M15.13,15.777c-0.002-0.025-0.012-0.091-0.023-0.197c-0.01-0.104-0.012-0.179-0.008-0.219
		c-0.025-0.062-0.104-0.079-0.234-0.052c-0.102,0.023-0.238,0.082-0.412,0.176c-0.176,0.092-0.354,0.198-0.533,0.319
		c-0.182,0.12-0.348,0.247-0.502,0.372c-0.152,0.131-0.26,0.234-0.322,0.314c-0.008,0.028-0.008,0.08,0.004,0.152
		c0.008,0.07,0.01,0.121,0.002,0.148c0.016,0.252,0.066,0.557,0.154,0.913c0.084,0.356,0.178,0.726,0.275,1.107
		c0.1,0.381,0.189,0.752,0.279,1.116c0.086,0.363,0.137,0.666,0.15,0.903l0.076-0.019c0.078-0.432,0.152-0.831,0.217-1.196
		c0.062-0.321,0.127-0.633,0.195-0.93c0.07-0.295,0.131-0.504,0.186-0.623c0.162-0.361,0.289-0.739,0.379-1.144
		C15.104,16.519,15.144,16.137,15.13,15.777z"/>
	<path fill="#FFFFFF" d="M15.817,23.754c0.035-0.029,0.037-0.053,0.006-0.072s-0.062-0.011-0.086,0.028s-0.018,0.055,0.021,0.047
		C15.765,23.782,15.786,23.781,15.817,23.754z"/>
	<path fill="#FFFFFF" d="M15.558,24.122c0.002-0.053-0.016-0.078-0.053-0.068c-0.053,0.013-0.08,0.047-0.082,0.099
		c0,0.054,0.025,0.076,0.076,0.066C15.538,24.208,15.556,24.176,15.558,24.122z"/>
	<path fill="#FFFFFF" d="M14.88,15.006l-0.01-0.038l0.008-0.062c-0.027,0.006-0.057,0.003-0.094-0.009s-0.066-0.016-0.092-0.01
		l-0.021-0.098c-0.064,0.015-0.166,0.057-0.305,0.129c-0.139,0.071-0.271,0.152-0.398,0.24c-0.129,0.089-0.242,0.18-0.344,0.27
		c-0.102,0.089-0.146,0.152-0.139,0.189l0.191-0.042c-0.012,0.071-0.053,0.112-0.125,0.128c-0.07,0.016-0.143,0.036-0.217,0.059
		c-0.076,0.023-0.143,0.06-0.197,0.105c-0.059,0.046-0.082,0.121-0.07,0.228l0.195-0.024L14.88,15.006z"/>
	<path fill="#FFFFFF" d="M14.321,30.2c0.006,0.056,0.039,0.071,0.102,0.058c0.041-0.008,0.059-0.036,0.051-0.09
		c-0.006-0.053-0.025-0.076-0.064-0.066C14.347,30.115,14.315,30.148,14.321,30.2z"/>
	<path fill="#FFFFFF" d="M22.98,29.059l0.041-0.008c0.025-0.006,0.041-0.024,0.049-0.049c0.008-0.031,0.023-0.05,0.047-0.053
		l-0.178,0.099L22.98,29.059z"/>
	<path fill="#FFFFFF" d="M23.375,28.651c0.006,0.025,0.021,0.034,0.047,0.027c0.025-0.005,0.035-0.02,0.029-0.046
		c0.008-0.03-0.002-0.04-0.027-0.033C23.398,28.603,23.383,28.622,23.375,28.651z"/>
	<path fill="#FFFFFF" d="M16.667,30.323c0.004,0.053,0.025,0.076,0.062,0.065c0.053-0.012,0.076-0.042,0.07-0.095
		c-0.004-0.052-0.031-0.072-0.084-0.061C16.677,30.241,16.661,30.271,16.667,30.323z"/>
	<path fill="#FFFFFF" d="M20,0.127c-10.952,0-19.832,8.877-19.832,19.834c0,10.951,8.88,19.83,19.832,19.83
		c10.953,0,19.832-8.879,19.832-19.83C39.832,9.004,30.953,0.125,20,0.127z M24.633,26.656c-0.211,0.586-0.551,1.192-1.016,1.817
		l0.01,0.039c-0.082,0.178-0.182,0.331-0.305,0.451c-0.119,0.12-0.275,0.237-0.465,0.345l-0.092-0.142
		c-0.014,0.004-0.053,0.034-0.111,0.087c-0.064,0.054-0.104,0.097-0.125,0.128c-0.086,0.1-0.195,0.205-0.33,0.315
		c-0.139,0.112-0.287,0.215-0.447,0.312c-0.16,0.096-0.322,0.18-0.486,0.258c-0.162,0.077-0.311,0.129-0.438,0.159
		c-0.105,0.009-0.205,0.003-0.295-0.016c-0.091-0.021-0.202-0.016-0.329,0.013l-0.385,0.085c-0.051,0.011-0.109,0.029-0.178,0.052
		c-0.07,0.021-0.135,0.046-0.197,0.069c-0.074,0.033-0.154,0.058-0.244,0.078l0.021,0.195c-0.037,0.009-0.123,0.017-0.254,0.027
		c-0.133,0.009-0.219,0.019-0.256,0.026c-0.066,0.001-0.184,0.014-0.346,0.036c-0.164,0.022-0.275,0.042-0.34,0.057
		c-0.041-0.005-0.121-0.011-0.234-0.019c-0.117-0.008-0.232-0.026-0.346-0.054c-0.115-0.028-0.215-0.06-0.305-0.097
		c-0.086-0.032-0.137-0.068-0.145-0.107c-0.162-0.003-0.369-0.019-0.623-0.041c-0.254-0.025-0.49-0.013-0.707,0.036
		c-0.008-0.095,0.027-0.168,0.102-0.224c0.074-0.058,0.154-0.097,0.246-0.116c0.102-0.022,0.174-0.019,0.213,0.013
		c0.041,0.031,0.127,0.06,0.252,0.086c-0.033-0.033-0.051-0.078-0.049-0.131c0.002-0.054,0.031-0.094,0.094-0.12
		c-0.109-0.005-0.209-0.019-0.301-0.045c-0.096-0.026-0.211-0.022-0.352,0.009c-0.09,0.019-0.148,0.062-0.174,0.128
		c-0.027,0.065-0.051,0.135-0.074,0.207c-0.023,0.076-0.049,0.144-0.074,0.21s-0.084,0.108-0.174,0.128l-0.039,0.01
		c-0.025,0.004-0.043-0.018-0.055-0.068c-0.018-0.024-0.029-0.048-0.035-0.075l-0.059,0.013c-0.064,0.015-0.105,0.053-0.127,0.111
		c-0.02,0.058-0.068,0.095-0.146,0.112c-0.076,0.018-0.139,0.005-0.189-0.038c-0.049-0.043-0.094-0.094-0.135-0.151
		c-0.039-0.059-0.088-0.108-0.143-0.151c-0.057-0.039-0.125-0.052-0.199-0.033l0.018,0.356c-0.025,0.007-0.051,0.019-0.072,0.039
		c-0.045,0.035-0.08,0.056-0.105,0.062l-0.02,0.004l-0.039,0.009c-0.016-0.01-0.047-0.035-0.096-0.078
		c-0.051-0.042-0.109-0.087-0.174-0.134s-0.121-0.084-0.176-0.112c-0.051-0.027-0.094-0.038-0.117-0.033l-0.021,0.006
		c-0.018,0.03-0.059,0.079-0.117,0.146c-0.057,0.066-0.098,0.115-0.119,0.146c-0.096-0.139-0.219-0.267-0.367-0.381
		c-0.145-0.112-0.25-0.252-0.312-0.414c-0.516-1.47-0.971-2.94-1.365-4.411s-0.793-2.96-1.195-4.469
		c-0.02-0.037-0.035-0.078-0.049-0.129c-0.023-0.05-0.041-0.1-0.053-0.15s-0.045-0.216-0.1-0.492
		c-0.057-0.275-0.119-0.574-0.189-0.895c-0.072-0.319-0.141-0.618-0.209-0.898c-0.07-0.281-0.115-0.459-0.131-0.537l-0.012-0.058
		l-0.582-1.885l-0.008-0.039c-0.02-0.265,0.014-0.495,0.096-0.695c0.084-0.199,0.197-0.385,0.342-0.551s0.314-0.32,0.512-0.467
		c0.195-0.145,0.4-0.285,0.609-0.428c0.055,0.003,0.156-0.006,0.307-0.027c0.15-0.02,0.301-0.048,0.455-0.082
		c0.154-0.033,0.299-0.07,0.441-0.105c0.135-0.039,0.238-0.07,0.299-0.098c0.344-0.09,0.68-0.25,1.014-0.477
		c0.33-0.229,0.656-0.412,0.975-0.551c0.148-0.059,0.27-0.105,0.373-0.134c0.102-0.029,0.207-0.056,0.314-0.081
		c0.107-0.023,0.225-0.046,0.346-0.066c0.125-0.021,0.277-0.051,0.455-0.092c1.271-0.268,2.199-0.205,2.783,0.188
		s0.914,1.153,0.988,2.279c0.02,0.264,0.018,0.588-0.002,0.978c-0.021,0.387-0.057,0.786-0.105,1.201
		c-0.051,0.414-0.111,0.818-0.184,1.209c-0.074,0.394-0.15,0.718-0.227,0.978c0.002,0.014-0.002,0.032-0.016,0.062
		c-0.016,0.03-0.029,0.067-0.047,0.11c-0.014,0.06-0.029,0.11-0.049,0.152l0.014,0.057l-0.014,0.026
		c0.082,0.008,0.213,0.019,0.391,0.032c0.178,0.017,0.359,0.028,0.543,0.041c0.184,0.012,0.35,0.026,0.494,0.042
		c0.143,0.015,0.229,0.02,0.254,0.014c0.039,0.005,0.117,0.019,0.229,0.038c0.113,0.024,0.227,0.044,0.339,0.066
		c0.111,0.025,0.217,0.045,0.316,0.071c0.1,0.025,0.164,0.039,0.193,0.048c0.082,0.021,0.141,0.066,0.168,0.133
		c0.029,0.067,0.055,0.133,0.074,0.195c0.021,0.062,0.057,0.114,0.104,0.15c0.049,0.032,0.148,0.037,0.305,0.002l0.006-0.062
		c-0.045-0.019-0.127-0.055-0.244-0.108c-0.123-0.053-0.188-0.111-0.203-0.178l0.02-0.003l0.059-0.014
		c0.199,0.063,0.416,0.165,0.641,0.301c0.223,0.139,0.42,0.277,0.586,0.415c-0.023,0.02,0.031,0.087,0.166,0.205
		c0.133,0.117,0.281,0.253,0.443,0.404c0.16,0.152,0.312,0.312,0.461,0.481c0.143,0.171,0.221,0.308,0.229,0.413l0.117-0.026
		c-0.004,0.095-0.039,0.158-0.1,0.183c0.193,0.08,0.352,0.203,0.479,0.378c0.125,0.172,0.223,0.371,0.291,0.589
		c0.068,0.22,0.117,0.444,0.15,0.673c0.029,0.229,0.055,0.44,0.07,0.64C24.934,25.455,24.846,26.073,24.633,26.656z M27.287,21.854
		l-0.043-0.008c-0.078,0.017-0.131,0.08-0.16,0.193c-0.025,0.115-0.107,0.18-0.236,0.193c-0.225,0.025-0.379,0.003-0.469-0.064
		c-0.088-0.068-0.189-0.21-0.307-0.426c-0.051-0.108-0.121-0.279-0.213-0.508c-0.09-0.229-0.193-0.486-0.303-0.778
		c-0.113-0.289-0.232-0.597-0.357-0.919c-0.127-0.32-0.246-0.625-0.365-0.914c-0.119-0.291-0.223-0.55-0.312-0.777
		c-0.092-0.228-0.156-0.398-0.195-0.511c-0.008-0.038-0.025-0.101-0.051-0.189c-0.029-0.089-0.059-0.187-0.098-0.292
		c-0.033-0.105-0.068-0.209-0.098-0.311s-0.051-0.177-0.062-0.229c-0.082-0.37-0.205-0.756-0.365-1.156
		c-0.166-0.4-0.295-0.785-0.391-1.154c-0.018-0.076-0.031-0.193-0.047-0.352c-0.016-0.156-0.037-0.316-0.066-0.479
		c-0.029-0.161-0.059-0.312-0.09-0.451c-0.033-0.143-0.074-0.234-0.121-0.276l-0.125-1.101c-0.018-0.023-0.066-0.066-0.139-0.129
		c-0.078-0.066-0.121-0.104-0.135-0.113l-0.014-0.057l0.01-0.043c-0.002-0.014,0.004-0.031,0.018-0.055
		c0.016-0.024,0.02-0.041,0.018-0.055c0.158-0.143,0.355-0.324,0.594-0.545c0.24-0.223,0.492-0.441,0.762-0.663
		c0.266-0.222,0.535-0.412,0.809-0.571c0.273-0.163,0.52-0.262,0.74-0.298l0.039-0.008c0.037-0.009,0.096-0.006,0.17,0.002
		c0.076,0.012,0.158,0.019,0.248,0.025c0.088,0.008,0.174,0.012,0.254,0.016c0.082,0.001,0.143,0.002,0.184,0.007
		c0.006,0.026,0.018,0.045,0.033,0.054c0.031,0.021,0.053,0.03,0.066,0.027c0.371,0.158,0.674,0.404,0.908,0.732
		c0.234,0.331,0.391,0.704,0.469,1.114c0.023,0.104,0.035,0.226,0.031,0.369c-0.002,0.141,0.049,0.232,0.152,0.276
		c0.057,0.728,0.119,1.429,0.197,2.104c0.074,0.675,0.203,1.354,0.383,2.04c0.172,0.646,0.344,1.299,0.518,1.961
		c0.172,0.658,0.299,1.314,0.379,1.971c0.014,0.186-0.016,0.354-0.09,0.513c-0.07,0.156-0.158,0.31-0.26,0.46
		s-0.193,0.312-0.287,0.478c-0.09,0.167-0.141,0.348-0.152,0.538l-0.02,0.004l-0.057,0.012l-0.055-0.066
		c-0.016-0.011-0.027-0.029-0.033-0.055l-0.018,0.006c-0.016,0.002-0.029-0.002-0.043-0.012c-0.053,0.012-0.08,0.041-0.082,0.088
		c-0.002,0.05-0.004,0.099-0.004,0.152c-0.004,0.054-0.016,0.105-0.041,0.149c-0.021,0.045-0.074,0.064-0.156,0.057
		c-0.016-0.01-0.051-0.042-0.104-0.098s-0.092-0.081-0.117-0.076c-0.053-0.001-0.145,0.042-0.273,0.132
		c-0.129,0.088-0.199,0.16-0.213,0.217c-0.029-0.004-0.068-0.025-0.115-0.062S27.305,21.878,27.287,21.854z M30.824,26.298
		c-0.377,0.574-0.949,0.945-1.717,1.115c-0.332,0.074-0.664,0.035-0.994-0.121c-0.33-0.154-0.537-0.43-0.627-0.828
		c-0.068-0.307-0.053-0.625,0.049-0.957c0.102-0.33,0.258-0.643,0.467-0.939c0.209-0.295,0.461-0.549,0.756-0.764
		c0.297-0.213,0.596-0.354,0.902-0.422c0.156-0.033,0.32-0.037,0.502-0.01c0.182,0.025,0.355,0.083,0.523,0.166
		c0.164,0.084,0.309,0.191,0.434,0.327c0.123,0.132,0.205,0.282,0.24,0.448l0.008,0.039C31.381,25.075,31.199,25.722,30.824,26.298z
		"/>
	<path fill="#FFFFFF" d="M21,25.408c-0.055-0.912-0.34-1.639-0.854-2.175c-0.518-0.536-1.229-0.939-2.133-1.207l-0.096,0.021
		c-0.014,0.003-0.08,0.002-0.203-0.005c-0.121-0.007-0.197-0.008-0.223-0.003c-0.107,0.053-0.248,0.163-0.416,0.337
		c-0.172,0.174-0.338,0.366-0.496,0.583c-0.16,0.216-0.299,0.429-0.414,0.637c-0.115,0.206-0.18,0.364-0.193,0.477
		c-0.008-0.024-0.025-0.051-0.049-0.069c-0.023-0.022-0.049-0.03-0.076-0.026c-0.025,0.007-0.076,0.073-0.154,0.198
		c-0.08,0.125-0.162,0.26-0.244,0.407c-0.082,0.144-0.154,0.282-0.221,0.411c-0.064,0.127-0.105,0.193-0.117,0.195
		c0.008,0.039,0.041,0.136,0.094,0.283s0.111,0.311,0.178,0.484c0.066,0.173,0.129,0.344,0.193,0.511
		c0.064,0.166,0.104,0.283,0.117,0.346c0.006,0.027,0.02,0.087,0.041,0.184c0.023,0.096,0.043,0.2,0.068,0.306
		c0.025,0.11,0.049,0.213,0.068,0.31c0.021,0.094,0.033,0.149,0.037,0.163c0.039,0.112,0.092,0.23,0.162,0.356
		c0.066,0.126,0.129,0.253,0.193,0.38c0.061,0.127,0.113,0.254,0.154,0.379c0.043,0.125,0.057,0.248,0.043,0.372
		c0.062-0.081,0.105-0.144,0.127-0.19c0.025-0.045,0.035-0.101,0.035-0.167c0.008-0.03,0.004-0.061-0.012-0.1
		c-0.016-0.035-0.041-0.051-0.08-0.042l0.076-0.019c0.064-0.014,0.104,0.01,0.115,0.067c0.014,0.058,0.051,0.078,0.115,0.065
		c0.062-0.015,0.111-0.045,0.141-0.092c0.031-0.049,0.102-0.086,0.217-0.111c-0.004-0.022-0.004-0.073-0.002-0.147
		c0.004-0.077,0.029-0.133,0.072-0.17c0.033,0.021,0.062,0.035,0.09,0.043c0.029,0.006,0.039,0.022,0.031,0.051
		c0.113,0.083,0.229,0.131,0.346,0.146c0.119,0.013,0.227,0.064,0.324,0.15l0.348-0.078c0.346-0.076,0.666-0.206,0.961-0.385
		c0.297-0.18,0.557-0.39,0.775-0.626c0.225-0.238,0.409-0.502,0.562-0.791c0.15-0.287,0.26-0.58,0.33-0.878
		c0.006-0.027,0.002-0.118-0.012-0.271S20.998,25.462,21,25.408z"/>
	<path fill="#FFFFFF" d="M16.894,29.225c-0.023,0.006-0.033,0.038-0.027,0.098c0.006,0.059,0.021,0.087,0.049,0.081
		c0.051-0.011,0.074-0.048,0.066-0.106C16.974,29.237,16.946,29.212,16.894,29.225z"/>
</g>
</svg>
