<?xml version="1.0" encoding="utf-8"?>
<!-- Generator: Adobe Illustrator 16.0.0, SVG Export Plug-In . SVG Version: 6.00 Build 0)  -->
<!DOCTYPE svg PUBLIC "-//W3C//DTD SVG 1.1//EN" "http://www.w3.org/Graphics/SVG/1.1/DTD/svg11.dtd">
<svg version="1.1" id="Layer_1" xmlns="http://www.w3.org/2000/svg" xmlns:xlink="http://www.w3.org/1999/xlink" x="0px" y="0px"
	 width="40px" height="39.918px" viewBox="0 0 40 39.918" enable-background="new 0 0 40 39.918" xml:space="preserve">
<path fill="#EF394F" d="M20,0.127c-10.952,0-19.832,8.877-19.832,19.835c0,10.95,8.88,19.829,19.832,19.829
	c10.953,0,19.832-8.879,19.832-19.829C39.832,9.004,30.953,0.126,20,0.127z M25.835,20.723h-4.354v11.645h-4.434V20.723h-3.08
	v-4.193h3.08c0,0,0-1.719,0-3.581c0-2.815,1.821-5.397,6.011-5.397c1.695,0,2.951,0.161,2.951,0.161l-0.099,3.916
	c0,0-1.28-0.013-2.675-0.013c-1.512,0-1.755,0.697-1.755,1.853c0,0.171,0,0.21,0,0.192c0,0.316,0,1.094,0,2.869h4.551L25.835,20.723
	z"/>
</svg>
