<?xml version="1.0" encoding="utf-8"?>
<!-- Generator: Adobe Illustrator 16.0.0, SVG Export Plug-In . SVG Version: 6.00 Build 0)  -->
<!DOCTYPE svg PUBLIC "-//W3C//DTD SVG 1.1//EN" "http://www.w3.org/Graphics/SVG/1.1/DTD/svg11.dtd">
<svg version="1.1" id="Layer_1" xmlns="http://www.w3.org/2000/svg" xmlns:xlink="http://www.w3.org/1999/xlink" x="0px" y="0px"
	 width="40px" height="39.918px" viewBox="0 0 40 39.918" enable-background="new 0 0 40 39.918" xml:space="preserve">
<g>
	<path fill="#FFD600" d="M24.393,16.104h2.668c0.305,0,0.551-0.247,0.551-0.552v-2.661c0-0.304-0.246-0.552-0.551-0.552h-2.668
		c-0.307,0-0.553,0.248-0.553,0.552v2.661C23.84,15.857,24.086,16.104,24.393,16.104z"/>
	<path fill="#FFD600" d="M20,0.127c-10.952,0-19.832,8.877-19.832,19.835c0,10.95,8.88,19.829,19.832,19.829
		c10.953,0,19.832-8.879,19.832-19.829C39.832,9.004,30.953,0.126,20,0.127z M29.867,27.486c0,1.292-1.051,2.34-2.346,2.34H12.478
		c-1.295,0-2.345-1.048-2.345-2.34V12.433c0-1.293,1.05-2.341,2.345-2.341h15.044c1.295,0,2.346,1.048,2.346,2.341V27.486z"/>
	<ellipse fill="#FFD600" cx="20.022" cy="19.982" rx="3.796" ry="3.786"/>
	<path fill="#FFD600" d="M26.025,19.981c0,3.303-2.693,5.99-6.003,5.99s-6.002-2.688-6.002-5.99c0-0.547,0.073-1.078,0.212-1.583
		h-1.847v8.583c0,0.304,0.248,0.552,0.551,0.552h14.169c0.305,0,0.553-0.248,0.553-0.552v-8.583h-1.846
		C25.951,18.903,26.025,19.435,26.025,19.981z"/>
</g>
</svg>
