<?xml version="1.0" encoding="utf-8"?>
<!-- Generator: Adobe Illustrator 16.0.0, SVG Export Plug-In . SVG Version: 6.00 Build 0)  -->
<!DOCTYPE svg PUBLIC "-//W3C//DTD SVG 1.1//EN" "http://www.w3.org/Graphics/SVG/1.1/DTD/svg11.dtd">
<svg version="1.1" id="Layer_1" xmlns="http://www.w3.org/2000/svg" xmlns:xlink="http://www.w3.org/1999/xlink" x="0px" y="0px"
	 width="40px" height="39.918px" viewBox="0 0 40 39.918" enable-background="new 0 0 40 39.918" xml:space="preserve">
<path fill="#FF7610" d="M20,0.127c-10.952,0-19.832,8.877-19.832,19.834c0,10.951,8.88,19.83,19.832,19.83
	c10.953,0,19.832-8.879,19.832-19.83C39.832,9.004,30.953,0.125,20,0.127z M11.741,11.705h16.508c0.485,0,0.933,0.131,1.314,0.346
	L20,20.421l-9.572-8.371C10.818,11.835,11.257,11.705,11.741,11.705z M8.991,25.465V14.457c0-0.541,0.16-1.035,0.43-1.465
	l6.878,6.021l-6.952,7.774C9.122,26.387,8.991,25.947,8.991,25.465z M28.249,28.213H11.741c-0.531,0-1.025-0.158-1.444-0.42
	l7.037-7.875l2.219,1.94c0.121,0.109,0.279,0.166,0.447,0.166c0.159,0,0.317-0.057,0.457-0.166l2.209-1.94l7.037,7.875
	C29.284,28.055,28.791,28.213,28.249,28.213z M31.009,25.465c0,0.482-0.14,0.922-0.354,1.322l-6.944-7.774l6.87-6.021
	c0.27,0.43,0.429,0.924,0.429,1.465V25.465z"/>
</svg>
