<?xml version="1.0" encoding="utf-8"?>
<!-- Generator: Adobe Illustrator 16.0.0, SVG Export Plug-In . SVG Version: 6.00 Build 0)  -->
<!DOCTYPE svg PUBLIC "-//W3C//DTD SVG 1.1//EN" "http://www.w3.org/Graphics/SVG/1.1/DTD/svg11.dtd">
<svg version="1.1" id="Layer_1" xmlns="http://www.w3.org/2000/svg" xmlns:xlink="http://www.w3.org/1999/xlink" x="0px" y="0px"
	 width="40px" height="39.918px" viewBox="0 0 40 39.918" enable-background="new 0 0 40 39.918" xml:space="preserve">
<g>
	<path fill="#EF394F" d="M24.907,12.604h-9.806c-0.168,0-0.317,0.061-0.427,0.186c-0.129,0.123-0.188,0.258-0.188,0.43v13.484
		c0,0.16,0.059,0.307,0.188,0.428c0.109,0.123,0.259,0.182,0.427,0.182h9.806c0.168,0,0.307-0.059,0.427-0.182
		c0.131-0.121,0.188-0.268,0.188-0.428V13.219c0-0.172-0.057-0.307-0.188-0.43C25.214,12.664,25.075,12.604,24.907,12.604z"/>
	<path fill="#EF394F" d="M18.467,10.77h3.067c0.209,0,0.308-0.105,0.308-0.309s-0.099-0.312-0.308-0.312h-3.067
		c-0.198,0-0.308,0.109-0.308,0.312S18.269,10.77,18.467,10.77z"/>
	<path fill="#EF394F" d="M20.005,28.232c-0.427,0-0.785,0.148-1.082,0.451c-0.308,0.299-0.456,0.666-0.456,1.082
		s0.148,0.779,0.456,1.082c0.297,0.303,0.655,0.451,1.082,0.451c0.406,0,0.784-0.148,1.071-0.451
		c0.308-0.303,0.458-0.666,0.458-1.082s-0.15-0.783-0.458-1.082C20.789,28.381,20.411,28.232,20.005,28.232z"/>
	<path fill="#EF394F" d="M20,0.127c-10.952,0-19.832,8.877-19.832,19.834c0,10.951,8.88,19.83,19.832,19.83
		c10.953,0,19.832-8.879,19.832-19.83C39.832,9.004,30.953,0.125,20,0.127z M27.359,29.766c0,0.662-0.238,1.24-0.734,1.727
		c-0.487,0.482-1.053,0.725-1.718,0.725h-9.806c-0.665,0-1.24-0.242-1.728-0.725c-0.485-0.486-0.733-1.064-0.733-1.727V10.148
		c0-0.66,0.248-1.23,0.733-1.723c0.487-0.486,1.062-0.725,1.728-0.725h9.806c0.665,0,1.23,0.238,1.718,0.725
		c0.496,0.492,0.734,1.062,0.734,1.723V29.766z"/>
</g>
</svg>
