<?xml version="1.0" encoding="utf-8"?>
<!-- Generator: Adobe Illustrator 16.0.0, SVG Export Plug-In . SVG Version: 6.00 Build 0)  -->
<!DOCTYPE svg PUBLIC "-//W3C//DTD SVG 1.1//EN" "http://www.w3.org/Graphics/SVG/1.1/DTD/svg11.dtd">
<svg version="1.1" id="Layer_1" xmlns="http://www.w3.org/2000/svg" xmlns:xlink="http://www.w3.org/1999/xlink" x="0px" y="0px"
	 width="40px" height="39.918px" viewBox="0 0 40 39.918" enable-background="new 0 0 40 39.918" xml:space="preserve">
<path fill="#FF7610" d="M20,0.127c-10.952,0-19.832,8.877-19.832,19.835c0,10.95,8.88,19.829,19.832,19.829
	c10.953,0,19.832-8.879,19.832-19.829C39.832,9.004,30.953,0.126,20,0.127z M29.152,15.093c0.572,5.979-4.246,14.311-13.635,14.37
	c-2.562,0.018-4.959-0.706-7.008-1.933c0.057,0.001,3.541,0.243,6.775-2.132c-2.113-0.104-3.881-1.507-4.527-3.427
	c0.404,0.104,1.455,0.293,2.332,0.047c-2.186-0.469-3.848-2.353-3.971-4.648c0.59,0.258,1.24,0.406,1.926,0.417
	c-1.178-0.923-2.895-3.509-1.256-6.493c2.289,2.957,5.84,4.885,9.848,4.972c-0.014-0.043-0.104-0.809-0.104-0.993
	c0-2.373,1.838-4.819,4.82-4.819c1.41,0,2.68,0.607,3.561,1.574c1.354-0.252,2.736-1.032,3.023-1.209
	c-0.377,1.104-1.143,2.027-2.133,2.607c0.008,0.017,0.014,0.034,0.021,0.05c0.936-0.113,1.83-0.36,2.664-0.722
	C31.01,13.783,30.18,14.614,29.152,15.093z"/>
</svg>
