<?xml version="1.0" encoding="utf-8"?>
<!-- Generator: Adobe Illustrator 16.0.0, SVG Export Plug-In . SVG Version: 6.00 Build 0)  -->
<!DOCTYPE svg PUBLIC "-//W3C//DTD SVG 1.1//EN" "http://www.w3.org/Graphics/SVG/1.1/DTD/svg11.dtd">
<svg version="1.1" id="Layer_1" xmlns="http://www.w3.org/2000/svg" xmlns:xlink="http://www.w3.org/1999/xlink" x="0px" y="0px"
	 width="40px" height="39.918px" viewBox="0 0 40 39.918" enable-background="new 0 0 40 39.918" xml:space="preserve">
<g>
	<path fill="#FFD600" d="M20,0.127c-10.952,0-19.832,8.877-19.832,19.834c0,10.951,8.88,19.83,19.832,19.83
		c10.953,0,19.832-8.879,19.832-19.83C39.832,9.004,30.953,0.125,20,0.127z M26.824,18.84l-6.829,13.377
		c0,0-6.873-13.49-6.902-13.541c-0.479-1.008-0.754-2.127-0.754-3.309c0-4.23,3.441-7.666,7.656-7.666
		c4.233,0,7.667,3.436,7.667,7.666C27.662,16.615,27.365,17.795,26.824,18.84z"/>
	<path fill="#FFD600" d="M19.995,10.771c-2.535,0-4.592,2.057-4.592,4.596c0,2.531,2.057,4.592,4.592,4.592
		c2.534,0,4.591-2.061,4.591-4.592C24.586,12.828,22.529,10.771,19.995,10.771z"/>
</g>
</svg>
